<?xml version="1.0" encoding="UTF-8" standalone="no"?>
<!DOCTYPE svg PUBLIC "-//W3C//DTD SVG 1.1//EN"
 "http://www.w3.org/Graphics/SVG/1.1/DTD/svg11.dtd">
<!-- Generated by graphviz version 3.0.0 (20220226.1711)
 -->
<!-- Pages: 1 -->
<svg width="721pt" height="112pt"
 viewBox="0.00 0.00 721.00 112.00" xmlns="http://www.w3.org/2000/svg" xmlns:xlink="http://www.w3.org/1999/xlink">
<g id="graph0" class="graph" transform="scale(1 1) rotate(0) translate(4 108)">
<polygon fill="white" stroke="transparent" points="-4,4 -4,-108 717,-108 717,4 -4,4"/>
<!-- tablaSimbolos -->
<g id="node1" class="node">
<title>tablaSimbolos</title>
<polygon fill="none" stroke="black" points="8.5,-79 8.5,-100 36.5,-100 36.5,-79 8.5,-79"/>
<text text-anchor="start" x="11.5" y="-85.8" font-family="Times New Roman,serif" font-size="14.00">No.</text>
<polygon fill="none" stroke="black" points="36.5,-79 36.5,-100 437.5,-100 437.5,-79 36.5,-79"/>
<text text-anchor="start" x="203" y="-85.8" font-family="Times New Roman,serif" font-size="14.00">Descripción</text>
<polygon fill="none" stroke="black" points="437.5,-79 437.5,-100 486.5,-100 486.5,-79 437.5,-79"/>
<text text-anchor="start" x="440.5" y="-85.8" font-family="Times New Roman,serif" font-size="14.00">Ámbito</text>
<polygon fill="none" stroke="black" points="486.5,-79 486.5,-100 524.5,-100 524.5,-79 486.5,-79"/>
<text text-anchor="start" x="489.5" y="-85.8" font-family="Times New Roman,serif" font-size="14.00">Línea</text>
<polygon fill="none" stroke="black" points="524.5,-79 524.5,-100 581.5,-100 581.5,-79 524.5,-79"/>
<text text-anchor="start" x="527.5" y="-85.8" font-family="Times New Roman,serif" font-size="14.00">Columna</text>
<polygon fill="none" stroke="black" points="581.5,-79 581.5,-100 705.5,-100 705.5,-79 581.5,-79"/>
<text text-anchor="start" x="607" y="-85.8" font-family="Times New Roman,serif" font-size="14.00">Fecha y hora</text>
<polygon fill="none" stroke="black" points="8.5,-54 8.5,-79 36.5,-79 36.5,-54 8.5,-54"/>
<text text-anchor="start" x="19" y="-62.8" font-family="Times New Roman,serif" font-size="14.00">1</text>
<polygon fill="none" stroke="black" points="36.5,-54 36.5,-79 437.5,-79 437.5,-54 36.5,-54"/>
<text text-anchor="start" x="44.5" y="-62.8" font-family="Times New Roman,serif" font-size="14.00">Semantic error, element &quot;Libro&quot;, doesn&#39;t exist &#45;&#45; Line: 397 Column: 0</text>
<polygon fill="none" stroke="black" points="437.5,-54 437.5,-79 486.5,-79 486.5,-54 437.5,-54"/>
<text text-anchor="start" x="443" y="-62.8" font-family="Times New Roman,serif" font-size="14.00">Global</text>
<polygon fill="none" stroke="black" points="486.5,-54 486.5,-79 524.5,-79 524.5,-54 486.5,-54"/>
<text text-anchor="start" x="495" y="-62.8" font-family="Times New Roman,serif" font-size="14.00">397</text>
<polygon fill="none" stroke="black" points="524.5,-54 524.5,-79 581.5,-79 581.5,-54 524.5,-54"/>
<text text-anchor="start" x="549.5" y="-62.8" font-family="Times New Roman,serif" font-size="14.00">0</text>
<polygon fill="none" stroke="black" points="581.5,-54 581.5,-79 705.5,-79 705.5,-54 581.5,-54"/>
<text text-anchor="start" x="586.5" y="-62.8" font-family="Times New Roman,serif" font-size="14.00">03&#45;24&#45;2022 00:03:21</text>
<polygon fill="none" stroke="black" points="8.5,-29 8.5,-54 36.5,-54 36.5,-29 8.5,-29"/>
<text text-anchor="start" x="19" y="-37.8" font-family="Times New Roman,serif" font-size="14.00">2</text>
<polygon fill="none" stroke="black" points="36.5,-29 36.5,-54 437.5,-54 437.5,-29 36.5,-29"/>
<text text-anchor="start" x="41.5" y="-37.8" font-family="Times New Roman,serif" font-size="14.00">Semantic error, element &quot;Lector&quot;, doesn&#39;t exist &#45;&#45; Line: 414 Column: 0</text>
<polygon fill="none" stroke="black" points="437.5,-29 437.5,-54 486.5,-54 486.5,-29 437.5,-29"/>
<text text-anchor="start" x="443" y="-37.8" font-family="Times New Roman,serif" font-size="14.00">Global</text>
<polygon fill="none" stroke="black" points="486.5,-29 486.5,-54 524.5,-54 524.5,-29 486.5,-29"/>
<text text-anchor="start" x="495" y="-37.8" font-family="Times New Roman,serif" font-size="14.00">414</text>
<polygon fill="none" stroke="black" points="524.5,-29 524.5,-54 581.5,-54 581.5,-29 524.5,-29"/>
<text text-anchor="start" x="549.5" y="-37.8" font-family="Times New Roman,serif" font-size="14.00">0</text>
<polygon fill="none" stroke="black" points="581.5,-29 581.5,-54 705.5,-54 705.5,-29 581.5,-29"/>
<text text-anchor="start" x="586.5" y="-37.8" font-family="Times New Roman,serif" font-size="14.00">03&#45;24&#45;2022 00:03:21</text>
<polygon fill="none" stroke="black" points="8.5,-4 8.5,-29 36.5,-29 36.5,-4 8.5,-4"/>
<text text-anchor="start" x="19" y="-12.8" font-family="Times New Roman,serif" font-size="14.00">3</text>
<polygon fill="none" stroke="black" points="36.5,-4 36.5,-29 437.5,-29 437.5,-4 36.5,-4"/>
<text text-anchor="start" x="41.5" y="-12.8" font-family="Times New Roman,serif" font-size="14.00">Semantic error, element &quot;Libro&quot;, doesn&#39;t exist &#45;&#45; Line: 397 Column: 20</text>
<polygon fill="none" stroke="black" points="437.5,-4 437.5,-29 486.5,-29 486.5,-4 437.5,-4"/>
<text text-anchor="start" x="446" y="-12.8" font-family="Times New Roman,serif" font-size="14.00">Local</text>
<polygon fill="none" stroke="black" points="486.5,-4 486.5,-29 524.5,-29 524.5,-4 486.5,-4"/>
<text text-anchor="start" x="495" y="-12.8" font-family="Times New Roman,serif" font-size="14.00">397</text>
<polygon fill="none" stroke="black" points="524.5,-4 524.5,-29 581.5,-29 581.5,-4 524.5,-4"/>
<text text-anchor="start" x="546" y="-12.8" font-family="Times New Roman,serif" font-size="14.00">20</text>
<polygon fill="none" stroke="black" points="581.5,-4 581.5,-29 705.5,-29 705.5,-4 581.5,-4"/>
<text text-anchor="start" x="586.5" y="-12.8" font-family="Times New Roman,serif" font-size="14.00">03&#45;24&#45;2022 00:03:27</text>
</g>
</g>
</svg>
