<?xml version="1.0" encoding="UTF-8" standalone="no"?>
<!DOCTYPE svg PUBLIC "-//W3C//DTD SVG 1.1//EN"
 "http://www.w3.org/Graphics/SVG/1.1/DTD/svg11.dtd">
<!-- Generated by graphviz version 3.0.0 (20220226.1711)
 -->
<!-- Pages: 1 -->
<svg width="446pt" height="687pt"
 viewBox="0.00 0.00 446.00 687.00" xmlns="http://www.w3.org/2000/svg" xmlns:xlink="http://www.w3.org/1999/xlink">
<g id="graph0" class="graph" transform="scale(1 1) rotate(0) translate(4 683)">
<polygon fill="white" stroke="transparent" points="-4,4 -4,-683 442,-683 442,4 -4,4"/>
<!-- tablaSimbolos -->
<g id="node1" class="node">
<title>tablaSimbolos</title>
<polygon fill="none" stroke="black" points="8,-653.5 8,-674.5 115,-674.5 115,-653.5 8,-653.5"/>
<text text-anchor="start" x="55" y="-660.3" font-family="Times New Roman,serif" font-size="14.00">Id</text>
<polygon fill="none" stroke="black" points="115,-653.5 115,-674.5 199,-674.5 199,-653.5 115,-653.5"/>
<text text-anchor="start" x="118" y="-660.3" font-family="Times New Roman,serif" font-size="14.00">Tipo símbolo</text>
<polygon fill="none" stroke="black" points="199,-653.5 199,-674.5 293,-674.5 293,-653.5 199,-653.5"/>
<text text-anchor="start" x="218" y="-660.3" font-family="Times New Roman,serif" font-size="14.00">Tipo dato</text>
<polygon fill="none" stroke="black" points="293,-653.5 293,-674.5 342,-674.5 342,-653.5 293,-653.5"/>
<text text-anchor="start" x="296" y="-660.3" font-family="Times New Roman,serif" font-size="14.00">Ámbito</text>
<polygon fill="none" stroke="black" points="342,-653.5 342,-674.5 373,-674.5 373,-653.5 342,-653.5"/>
<text text-anchor="start" x="347" y="-660.3" font-family="Times New Roman,serif" font-size="14.00">Fila</text>
<polygon fill="none" stroke="black" points="373,-653.5 373,-674.5 430,-674.5 430,-653.5 373,-653.5"/>
<text text-anchor="start" x="376" y="-660.3" font-family="Times New Roman,serif" font-size="14.00">Columna</text>
<polygon fill="none" stroke="black" points="8,-628.5 8,-653.5 115,-653.5 115,-628.5 8,-628.5"/>
<text text-anchor="start" x="46" y="-637.3" font-family="Times New Roman,serif" font-size="14.00">Libro</text>
<polygon fill="none" stroke="black" points="115,-628.5 115,-653.5 199,-653.5 199,-628.5 115,-628.5"/>
<text text-anchor="start" x="122" y="-637.3" font-family="Times New Roman,serif" font-size="14.00">VARIABLE</text>
<polygon fill="none" stroke="black" points="199,-628.5 199,-653.5 293,-653.5 293,-628.5 199,-628.5"/>
<text text-anchor="start" x="218" y="-637.3" font-family="Times New Roman,serif" font-size="14.00">STRUCT</text>
<polygon fill="none" stroke="black" points="293,-628.5 293,-653.5 342,-653.5 342,-628.5 293,-628.5"/>
<text text-anchor="start" x="301.5" y="-637.3" font-family="Times New Roman,serif" font-size="14.00">Local</text>
<polygon fill="none" stroke="black" points="342,-628.5 342,-653.5 373,-653.5 373,-628.5 342,-628.5"/>
<text text-anchor="start" x="354" y="-637.3" font-family="Times New Roman,serif" font-size="14.00">8</text>
<polygon fill="none" stroke="black" points="373,-628.5 373,-653.5 430,-653.5 430,-628.5 373,-628.5"/>
<text text-anchor="start" x="394.5" y="-637.3" font-family="Times New Roman,serif" font-size="14.00">19</text>
<polygon fill="none" stroke="black" points="8,-603.5 8,-628.5 115,-628.5 115,-603.5 8,-603.5"/>
<text text-anchor="start" x="28" y="-612.3" font-family="Times New Roman,serif" font-size="14.00">create_table</text>
<polygon fill="none" stroke="black" points="115,-603.5 115,-628.5 199,-628.5 199,-603.5 115,-603.5"/>
<text text-anchor="start" x="125.5" y="-612.3" font-family="Times New Roman,serif" font-size="14.00">FUNCION</text>
<polygon fill="none" stroke="black" points="199,-603.5 199,-628.5 293,-628.5 293,-603.5 199,-603.5"/>
<text text-anchor="start" x="212.5" y="-612.3" font-family="Times New Roman,serif" font-size="14.00">Vec &#45;Libro&#45;</text>
<polygon fill="none" stroke="black" points="293,-603.5 293,-628.5 342,-628.5 342,-603.5 293,-603.5"/>
<text text-anchor="start" x="301.5" y="-612.3" font-family="Times New Roman,serif" font-size="14.00">Local</text>
<polygon fill="none" stroke="black" points="342,-603.5 342,-628.5 373,-628.5 373,-603.5 342,-603.5"/>
<text text-anchor="start" x="350.5" y="-612.3" font-family="Times New Roman,serif" font-size="14.00">24</text>
<polygon fill="none" stroke="black" points="373,-603.5 373,-628.5 430,-628.5 430,-603.5 373,-603.5"/>
<text text-anchor="start" x="394.5" y="-612.3" font-family="Times New Roman,serif" font-size="14.00">12</text>
<polygon fill="none" stroke="black" points="8,-578.5 8,-603.5 115,-603.5 115,-578.5 8,-578.5"/>
<text text-anchor="start" x="25.5" y="-587.3" font-family="Times New Roman,serif" font-size="14.00">select_by_id</text>
<polygon fill="none" stroke="black" points="115,-578.5 115,-603.5 199,-603.5 199,-578.5 115,-578.5"/>
<text text-anchor="start" x="125.5" y="-587.3" font-family="Times New Roman,serif" font-size="14.00">FUNCION</text>
<polygon fill="none" stroke="black" points="199,-578.5 199,-603.5 293,-603.5 293,-578.5 199,-578.5"/>
<text text-anchor="start" x="230.5" y="-587.3" font-family="Times New Roman,serif" font-size="14.00">Libro</text>
<polygon fill="none" stroke="black" points="293,-578.5 293,-603.5 342,-603.5 342,-578.5 293,-578.5"/>
<text text-anchor="start" x="301.5" y="-587.3" font-family="Times New Roman,serif" font-size="14.00">Local</text>
<polygon fill="none" stroke="black" points="342,-578.5 342,-603.5 373,-603.5 373,-578.5 342,-578.5"/>
<text text-anchor="start" x="350.5" y="-587.3" font-family="Times New Roman,serif" font-size="14.00">50</text>
<polygon fill="none" stroke="black" points="373,-578.5 373,-603.5 430,-603.5 430,-578.5 373,-578.5"/>
<text text-anchor="start" x="394.5" y="-587.3" font-family="Times New Roman,serif" font-size="14.00">12</text>
<polygon fill="none" stroke="black" points="8,-553.5 8,-578.5 115,-578.5 115,-553.5 8,-553.5"/>
<text text-anchor="start" x="45.5" y="-562.3" font-family="Times New Roman,serif" font-size="14.00">select</text>
<polygon fill="none" stroke="black" points="115,-553.5 115,-578.5 199,-578.5 199,-553.5 115,-553.5"/>
<text text-anchor="start" x="125.5" y="-562.3" font-family="Times New Roman,serif" font-size="14.00">FUNCION</text>
<polygon fill="none" stroke="black" points="199,-553.5 199,-578.5 293,-578.5 293,-553.5 199,-553.5"/>
<text text-anchor="start" x="228.5" y="-562.3" font-family="Times New Roman,serif" font-size="14.00">VOID</text>
<polygon fill="none" stroke="black" points="293,-553.5 293,-578.5 342,-578.5 342,-553.5 293,-553.5"/>
<text text-anchor="start" x="301.5" y="-562.3" font-family="Times New Roman,serif" font-size="14.00">Local</text>
<polygon fill="none" stroke="black" points="342,-553.5 342,-578.5 373,-578.5 373,-553.5 342,-553.5"/>
<text text-anchor="start" x="350.5" y="-562.3" font-family="Times New Roman,serif" font-size="14.00">78</text>
<polygon fill="none" stroke="black" points="373,-553.5 373,-578.5 430,-578.5 430,-553.5 373,-553.5"/>
<text text-anchor="start" x="394.5" y="-562.3" font-family="Times New Roman,serif" font-size="14.00">12</text>
<polygon fill="none" stroke="black" points="8,-528.5 8,-553.5 115,-553.5 115,-528.5 8,-528.5"/>
<text text-anchor="start" x="43" y="-537.3" font-family="Times New Roman,serif" font-size="14.00">inserts</text>
<polygon fill="none" stroke="black" points="115,-528.5 115,-553.5 199,-553.5 199,-528.5 115,-528.5"/>
<text text-anchor="start" x="125.5" y="-537.3" font-family="Times New Roman,serif" font-size="14.00">FUNCION</text>
<polygon fill="none" stroke="black" points="199,-528.5 199,-553.5 293,-553.5 293,-528.5 199,-528.5"/>
<text text-anchor="start" x="212.5" y="-537.3" font-family="Times New Roman,serif" font-size="14.00">Vec &#45;Libro&#45;</text>
<polygon fill="none" stroke="black" points="293,-528.5 293,-553.5 342,-553.5 342,-528.5 293,-528.5"/>
<text text-anchor="start" x="301.5" y="-537.3" font-family="Times New Roman,serif" font-size="14.00">Local</text>
<polygon fill="none" stroke="black" points="342,-528.5 342,-553.5 373,-553.5 373,-528.5 342,-528.5"/>
<text text-anchor="start" x="347" y="-537.3" font-family="Times New Roman,serif" font-size="14.00">102</text>
<polygon fill="none" stroke="black" points="373,-528.5 373,-553.5 430,-553.5 430,-528.5 373,-528.5"/>
<text text-anchor="start" x="394.5" y="-537.3" font-family="Times New Roman,serif" font-size="14.00">12</text>
<polygon fill="none" stroke="black" points="8,-503.5 8,-528.5 115,-528.5 115,-503.5 8,-503.5"/>
<text text-anchor="start" x="42.5" y="-512.3" font-family="Times New Roman,serif" font-size="14.00">update</text>
<polygon fill="none" stroke="black" points="115,-503.5 115,-528.5 199,-528.5 199,-503.5 115,-503.5"/>
<text text-anchor="start" x="125.5" y="-512.3" font-family="Times New Roman,serif" font-size="14.00">FUNCION</text>
<polygon fill="none" stroke="black" points="199,-503.5 199,-528.5 293,-528.5 293,-503.5 199,-503.5"/>
<text text-anchor="start" x="212.5" y="-512.3" font-family="Times New Roman,serif" font-size="14.00">Vec &#45;Libro&#45;</text>
<polygon fill="none" stroke="black" points="293,-503.5 293,-528.5 342,-528.5 342,-503.5 293,-503.5"/>
<text text-anchor="start" x="301.5" y="-512.3" font-family="Times New Roman,serif" font-size="14.00">Local</text>
<polygon fill="none" stroke="black" points="342,-503.5 342,-528.5 373,-528.5 373,-503.5 342,-503.5"/>
<text text-anchor="start" x="347" y="-512.3" font-family="Times New Roman,serif" font-size="14.00">131</text>
<polygon fill="none" stroke="black" points="373,-503.5 373,-528.5 430,-528.5 430,-503.5 373,-503.5"/>
<text text-anchor="start" x="394.5" y="-512.3" font-family="Times New Roman,serif" font-size="14.00">12</text>
<polygon fill="none" stroke="black" points="8,-478.5 8,-503.5 115,-503.5 115,-478.5 8,-478.5"/>
<text text-anchor="start" x="15.5" y="-487.3" font-family="Times New Roman,serif" font-size="14.00">update_by_filter</text>
<polygon fill="none" stroke="black" points="115,-478.5 115,-503.5 199,-503.5 199,-478.5 115,-478.5"/>
<text text-anchor="start" x="125.5" y="-487.3" font-family="Times New Roman,serif" font-size="14.00">FUNCION</text>
<polygon fill="none" stroke="black" points="199,-478.5 199,-503.5 293,-503.5 293,-478.5 199,-478.5"/>
<text text-anchor="start" x="212.5" y="-487.3" font-family="Times New Roman,serif" font-size="14.00">Vec &#45;Libro&#45;</text>
<polygon fill="none" stroke="black" points="293,-478.5 293,-503.5 342,-503.5 342,-478.5 293,-478.5"/>
<text text-anchor="start" x="301.5" y="-487.3" font-family="Times New Roman,serif" font-size="14.00">Local</text>
<polygon fill="none" stroke="black" points="342,-478.5 342,-503.5 373,-503.5 373,-478.5 342,-478.5"/>
<text text-anchor="start" x="347" y="-487.3" font-family="Times New Roman,serif" font-size="14.00">158</text>
<polygon fill="none" stroke="black" points="373,-478.5 373,-503.5 430,-503.5 430,-478.5 373,-478.5"/>
<text text-anchor="start" x="394.5" y="-487.3" font-family="Times New Roman,serif" font-size="14.00">12</text>
<polygon fill="none" stroke="black" points="8,-453.5 8,-478.5 115,-478.5 115,-453.5 8,-453.5"/>
<text text-anchor="start" x="25" y="-462.3" font-family="Times New Roman,serif" font-size="14.00">delete_by_id</text>
<polygon fill="none" stroke="black" points="115,-453.5 115,-478.5 199,-478.5 199,-453.5 115,-453.5"/>
<text text-anchor="start" x="125.5" y="-462.3" font-family="Times New Roman,serif" font-size="14.00">FUNCION</text>
<polygon fill="none" stroke="black" points="199,-453.5 199,-478.5 293,-478.5 293,-453.5 199,-453.5"/>
<text text-anchor="start" x="212.5" y="-462.3" font-family="Times New Roman,serif" font-size="14.00">Vec &#45;Libro&#45;</text>
<polygon fill="none" stroke="black" points="293,-453.5 293,-478.5 342,-478.5 342,-453.5 293,-453.5"/>
<text text-anchor="start" x="301.5" y="-462.3" font-family="Times New Roman,serif" font-size="14.00">Local</text>
<polygon fill="none" stroke="black" points="342,-453.5 342,-478.5 373,-478.5 373,-453.5 342,-453.5"/>
<text text-anchor="start" x="347" y="-462.3" font-family="Times New Roman,serif" font-size="14.00">191</text>
<polygon fill="none" stroke="black" points="373,-453.5 373,-478.5 430,-478.5 430,-453.5 373,-453.5"/>
<text text-anchor="start" x="394.5" y="-462.3" font-family="Times New Roman,serif" font-size="14.00">12</text>
<polygon fill="none" stroke="black" points="8,-428.5 8,-453.5 115,-453.5 115,-428.5 8,-428.5"/>
<text text-anchor="start" x="48.5" y="-437.3" font-family="Times New Roman,serif" font-size="14.00">libro</text>
<polygon fill="none" stroke="black" points="115,-428.5 115,-453.5 199,-453.5 199,-428.5 115,-428.5"/>
<text text-anchor="start" x="126.5" y="-437.3" font-family="Times New Roman,serif" font-size="14.00">MODULO</text>
<polygon fill="none" stroke="black" points="199,-428.5 199,-453.5 293,-453.5 293,-428.5 199,-428.5"/>
<polygon fill="none" stroke="black" points="293,-428.5 293,-453.5 342,-453.5 342,-428.5 293,-428.5"/>
<text text-anchor="start" x="301.5" y="-437.3" font-family="Times New Roman,serif" font-size="14.00">Local</text>
<polygon fill="none" stroke="black" points="342,-428.5 342,-453.5 373,-453.5 373,-428.5 342,-428.5"/>
<text text-anchor="start" x="354" y="-437.3" font-family="Times New Roman,serif" font-size="14.00">5</text>
<polygon fill="none" stroke="black" points="373,-428.5 373,-453.5 430,-453.5 430,-428.5 373,-428.5"/>
<text text-anchor="start" x="398" y="-437.3" font-family="Times New Roman,serif" font-size="14.00">4</text>
<polygon fill="none" stroke="black" points="8,-403.5 8,-428.5 115,-428.5 115,-403.5 8,-403.5"/>
<text text-anchor="start" x="43" y="-412.3" font-family="Times New Roman,serif" font-size="14.00">Lector</text>
<polygon fill="none" stroke="black" points="115,-403.5 115,-428.5 199,-428.5 199,-403.5 115,-403.5"/>
<text text-anchor="start" x="122" y="-412.3" font-family="Times New Roman,serif" font-size="14.00">VARIABLE</text>
<polygon fill="none" stroke="black" points="199,-403.5 199,-428.5 293,-428.5 293,-403.5 199,-403.5"/>
<text text-anchor="start" x="218" y="-412.3" font-family="Times New Roman,serif" font-size="14.00">STRUCT</text>
<polygon fill="none" stroke="black" points="293,-403.5 293,-428.5 342,-428.5 342,-403.5 293,-403.5"/>
<text text-anchor="start" x="301.5" y="-412.3" font-family="Times New Roman,serif" font-size="14.00">Local</text>
<polygon fill="none" stroke="black" points="342,-403.5 342,-428.5 373,-428.5 373,-403.5 342,-403.5"/>
<text text-anchor="start" x="347" y="-412.3" font-family="Times New Roman,serif" font-size="14.00">206</text>
<polygon fill="none" stroke="black" points="373,-403.5 373,-428.5 430,-428.5 430,-403.5 373,-403.5"/>
<text text-anchor="start" x="394.5" y="-412.3" font-family="Times New Roman,serif" font-size="14.00">19</text>
<polygon fill="none" stroke="black" points="8,-378.5 8,-403.5 115,-403.5 115,-378.5 8,-378.5"/>
<text text-anchor="start" x="28" y="-387.3" font-family="Times New Roman,serif" font-size="14.00">create_table</text>
<polygon fill="none" stroke="black" points="115,-378.5 115,-403.5 199,-403.5 199,-378.5 115,-378.5"/>
<text text-anchor="start" x="125.5" y="-387.3" font-family="Times New Roman,serif" font-size="14.00">FUNCION</text>
<polygon fill="none" stroke="black" points="199,-378.5 199,-403.5 293,-403.5 293,-378.5 199,-378.5"/>
<text text-anchor="start" x="209.5" y="-387.3" font-family="Times New Roman,serif" font-size="14.00">Vec &#45;Lector&#45;</text>
<polygon fill="none" stroke="black" points="293,-378.5 293,-403.5 342,-403.5 342,-378.5 293,-378.5"/>
<text text-anchor="start" x="301.5" y="-387.3" font-family="Times New Roman,serif" font-size="14.00">Local</text>
<polygon fill="none" stroke="black" points="342,-378.5 342,-403.5 373,-403.5 373,-378.5 342,-378.5"/>
<text text-anchor="start" x="347" y="-387.3" font-family="Times New Roman,serif" font-size="14.00">222</text>
<polygon fill="none" stroke="black" points="373,-378.5 373,-403.5 430,-403.5 430,-378.5 373,-378.5"/>
<text text-anchor="start" x="394.5" y="-387.3" font-family="Times New Roman,serif" font-size="14.00">12</text>
<polygon fill="none" stroke="black" points="8,-353.5 8,-378.5 115,-378.5 115,-353.5 8,-353.5"/>
<text text-anchor="start" x="25.5" y="-362.3" font-family="Times New Roman,serif" font-size="14.00">select_by_id</text>
<polygon fill="none" stroke="black" points="115,-353.5 115,-378.5 199,-378.5 199,-353.5 115,-353.5"/>
<text text-anchor="start" x="125.5" y="-362.3" font-family="Times New Roman,serif" font-size="14.00">FUNCION</text>
<polygon fill="none" stroke="black" points="199,-353.5 199,-378.5 293,-378.5 293,-353.5 199,-353.5"/>
<text text-anchor="start" x="227.5" y="-362.3" font-family="Times New Roman,serif" font-size="14.00">Lector</text>
<polygon fill="none" stroke="black" points="293,-353.5 293,-378.5 342,-378.5 342,-353.5 293,-353.5"/>
<text text-anchor="start" x="301.5" y="-362.3" font-family="Times New Roman,serif" font-size="14.00">Local</text>
<polygon fill="none" stroke="black" points="342,-353.5 342,-378.5 373,-378.5 373,-353.5 342,-353.5"/>
<text text-anchor="start" x="347" y="-362.3" font-family="Times New Roman,serif" font-size="14.00">248</text>
<polygon fill="none" stroke="black" points="373,-353.5 373,-378.5 430,-378.5 430,-353.5 373,-353.5"/>
<text text-anchor="start" x="394.5" y="-362.3" font-family="Times New Roman,serif" font-size="14.00">12</text>
<polygon fill="none" stroke="black" points="8,-328.5 8,-353.5 115,-353.5 115,-328.5 8,-328.5"/>
<text text-anchor="start" x="45.5" y="-337.3" font-family="Times New Roman,serif" font-size="14.00">select</text>
<polygon fill="none" stroke="black" points="115,-328.5 115,-353.5 199,-353.5 199,-328.5 115,-328.5"/>
<text text-anchor="start" x="125.5" y="-337.3" font-family="Times New Roman,serif" font-size="14.00">FUNCION</text>
<polygon fill="none" stroke="black" points="199,-328.5 199,-353.5 293,-353.5 293,-328.5 199,-328.5"/>
<text text-anchor="start" x="228.5" y="-337.3" font-family="Times New Roman,serif" font-size="14.00">VOID</text>
<polygon fill="none" stroke="black" points="293,-328.5 293,-353.5 342,-353.5 342,-328.5 293,-328.5"/>
<text text-anchor="start" x="301.5" y="-337.3" font-family="Times New Roman,serif" font-size="14.00">Local</text>
<polygon fill="none" stroke="black" points="342,-328.5 342,-353.5 373,-353.5 373,-328.5 342,-328.5"/>
<text text-anchor="start" x="347" y="-337.3" font-family="Times New Roman,serif" font-size="14.00">277</text>
<polygon fill="none" stroke="black" points="373,-328.5 373,-353.5 430,-353.5 430,-328.5 373,-328.5"/>
<text text-anchor="start" x="394.5" y="-337.3" font-family="Times New Roman,serif" font-size="14.00">12</text>
<polygon fill="none" stroke="black" points="8,-303.5 8,-328.5 115,-328.5 115,-303.5 8,-303.5"/>
<text text-anchor="start" x="43" y="-312.3" font-family="Times New Roman,serif" font-size="14.00">inserts</text>
<polygon fill="none" stroke="black" points="115,-303.5 115,-328.5 199,-328.5 199,-303.5 115,-303.5"/>
<text text-anchor="start" x="125.5" y="-312.3" font-family="Times New Roman,serif" font-size="14.00">FUNCION</text>
<polygon fill="none" stroke="black" points="199,-303.5 199,-328.5 293,-328.5 293,-303.5 199,-303.5"/>
<text text-anchor="start" x="209.5" y="-312.3" font-family="Times New Roman,serif" font-size="14.00">Vec &#45;Lector&#45;</text>
<polygon fill="none" stroke="black" points="293,-303.5 293,-328.5 342,-328.5 342,-303.5 293,-303.5"/>
<text text-anchor="start" x="301.5" y="-312.3" font-family="Times New Roman,serif" font-size="14.00">Local</text>
<polygon fill="none" stroke="black" points="342,-303.5 342,-328.5 373,-328.5 373,-303.5 342,-303.5"/>
<text text-anchor="start" x="347" y="-312.3" font-family="Times New Roman,serif" font-size="14.00">301</text>
<polygon fill="none" stroke="black" points="373,-303.5 373,-328.5 430,-328.5 430,-303.5 373,-303.5"/>
<text text-anchor="start" x="394.5" y="-312.3" font-family="Times New Roman,serif" font-size="14.00">12</text>
<polygon fill="none" stroke="black" points="8,-278.5 8,-303.5 115,-303.5 115,-278.5 8,-278.5"/>
<text text-anchor="start" x="42.5" y="-287.3" font-family="Times New Roman,serif" font-size="14.00">update</text>
<polygon fill="none" stroke="black" points="115,-278.5 115,-303.5 199,-303.5 199,-278.5 115,-278.5"/>
<text text-anchor="start" x="125.5" y="-287.3" font-family="Times New Roman,serif" font-size="14.00">FUNCION</text>
<polygon fill="none" stroke="black" points="199,-278.5 199,-303.5 293,-303.5 293,-278.5 199,-278.5"/>
<text text-anchor="start" x="209.5" y="-287.3" font-family="Times New Roman,serif" font-size="14.00">Vec &#45;Lector&#45;</text>
<polygon fill="none" stroke="black" points="293,-278.5 293,-303.5 342,-303.5 342,-278.5 293,-278.5"/>
<text text-anchor="start" x="301.5" y="-287.3" font-family="Times New Roman,serif" font-size="14.00">Local</text>
<polygon fill="none" stroke="black" points="342,-278.5 342,-303.5 373,-303.5 373,-278.5 342,-278.5"/>
<text text-anchor="start" x="347" y="-287.3" font-family="Times New Roman,serif" font-size="14.00">330</text>
<polygon fill="none" stroke="black" points="373,-278.5 373,-303.5 430,-303.5 430,-278.5 373,-278.5"/>
<text text-anchor="start" x="394.5" y="-287.3" font-family="Times New Roman,serif" font-size="14.00">12</text>
<polygon fill="none" stroke="black" points="8,-253.5 8,-278.5 115,-278.5 115,-253.5 8,-253.5"/>
<text text-anchor="start" x="15.5" y="-262.3" font-family="Times New Roman,serif" font-size="14.00">update_by_filter</text>
<polygon fill="none" stroke="black" points="115,-253.5 115,-278.5 199,-278.5 199,-253.5 115,-253.5"/>
<text text-anchor="start" x="125.5" y="-262.3" font-family="Times New Roman,serif" font-size="14.00">FUNCION</text>
<polygon fill="none" stroke="black" points="199,-253.5 199,-278.5 293,-278.5 293,-253.5 199,-253.5"/>
<text text-anchor="start" x="209.5" y="-262.3" font-family="Times New Roman,serif" font-size="14.00">Vec &#45;Lector&#45;</text>
<polygon fill="none" stroke="black" points="293,-253.5 293,-278.5 342,-278.5 342,-253.5 293,-253.5"/>
<text text-anchor="start" x="301.5" y="-262.3" font-family="Times New Roman,serif" font-size="14.00">Local</text>
<polygon fill="none" stroke="black" points="342,-253.5 342,-278.5 373,-278.5 373,-253.5 342,-253.5"/>
<text text-anchor="start" x="347" y="-262.3" font-family="Times New Roman,serif" font-size="14.00">357</text>
<polygon fill="none" stroke="black" points="373,-253.5 373,-278.5 430,-278.5 430,-253.5 373,-253.5"/>
<text text-anchor="start" x="394.5" y="-262.3" font-family="Times New Roman,serif" font-size="14.00">12</text>
<polygon fill="none" stroke="black" points="8,-228.5 8,-253.5 115,-253.5 115,-228.5 8,-228.5"/>
<text text-anchor="start" x="25" y="-237.3" font-family="Times New Roman,serif" font-size="14.00">delete_by_id</text>
<polygon fill="none" stroke="black" points="115,-228.5 115,-253.5 199,-253.5 199,-228.5 115,-228.5"/>
<text text-anchor="start" x="125.5" y="-237.3" font-family="Times New Roman,serif" font-size="14.00">FUNCION</text>
<polygon fill="none" stroke="black" points="199,-228.5 199,-253.5 293,-253.5 293,-228.5 199,-228.5"/>
<text text-anchor="start" x="209.5" y="-237.3" font-family="Times New Roman,serif" font-size="14.00">Vec &#45;Lector&#45;</text>
<polygon fill="none" stroke="black" points="293,-228.5 293,-253.5 342,-253.5 342,-228.5 293,-228.5"/>
<text text-anchor="start" x="301.5" y="-237.3" font-family="Times New Roman,serif" font-size="14.00">Local</text>
<polygon fill="none" stroke="black" points="342,-228.5 342,-253.5 373,-253.5 373,-228.5 342,-228.5"/>
<text text-anchor="start" x="347" y="-237.3" font-family="Times New Roman,serif" font-size="14.00">385</text>
<polygon fill="none" stroke="black" points="373,-228.5 373,-253.5 430,-253.5 430,-228.5 373,-228.5"/>
<text text-anchor="start" x="394.5" y="-237.3" font-family="Times New Roman,serif" font-size="14.00">12</text>
<polygon fill="none" stroke="black" points="8,-203.5 8,-228.5 115,-228.5 115,-203.5 8,-203.5"/>
<text text-anchor="start" x="45.5" y="-212.3" font-family="Times New Roman,serif" font-size="14.00">lector</text>
<polygon fill="none" stroke="black" points="115,-203.5 115,-228.5 199,-228.5 199,-203.5 115,-203.5"/>
<text text-anchor="start" x="126.5" y="-212.3" font-family="Times New Roman,serif" font-size="14.00">MODULO</text>
<polygon fill="none" stroke="black" points="199,-203.5 199,-228.5 293,-228.5 293,-203.5 199,-203.5"/>
<polygon fill="none" stroke="black" points="293,-203.5 293,-228.5 342,-228.5 342,-203.5 293,-203.5"/>
<text text-anchor="start" x="301.5" y="-212.3" font-family="Times New Roman,serif" font-size="14.00">Local</text>
<polygon fill="none" stroke="black" points="342,-203.5 342,-228.5 373,-228.5 373,-203.5 342,-203.5"/>
<text text-anchor="start" x="347" y="-212.3" font-family="Times New Roman,serif" font-size="14.00">203</text>
<polygon fill="none" stroke="black" points="373,-203.5 373,-228.5 430,-228.5 430,-203.5 373,-203.5"/>
<text text-anchor="start" x="398" y="-212.3" font-family="Times New Roman,serif" font-size="14.00">4</text>
<polygon fill="none" stroke="black" points="8,-178.5 8,-203.5 115,-203.5 115,-178.5 8,-178.5"/>
<text text-anchor="start" x="34" y="-187.3" font-family="Times New Roman,serif" font-size="14.00">biblioteca</text>
<polygon fill="none" stroke="black" points="115,-178.5 115,-203.5 199,-203.5 199,-178.5 115,-178.5"/>
<text text-anchor="start" x="126.5" y="-187.3" font-family="Times New Roman,serif" font-size="14.00">MODULO</text>
<polygon fill="none" stroke="black" points="199,-178.5 199,-203.5 293,-203.5 293,-178.5 199,-178.5"/>
<polygon fill="none" stroke="black" points="293,-178.5 293,-203.5 342,-203.5 342,-178.5 293,-178.5"/>
<text text-anchor="start" x="298.5" y="-187.3" font-family="Times New Roman,serif" font-size="14.00">Global</text>
<polygon fill="none" stroke="black" points="342,-178.5 342,-203.5 373,-203.5 373,-178.5 342,-178.5"/>
<text text-anchor="start" x="354" y="-187.3" font-family="Times New Roman,serif" font-size="14.00">2</text>
<polygon fill="none" stroke="black" points="373,-178.5 373,-203.5 430,-203.5 430,-178.5 373,-178.5"/>
<text text-anchor="start" x="398" y="-187.3" font-family="Times New Roman,serif" font-size="14.00">0</text>
<polygon fill="none" stroke="black" points="8,-153.5 8,-178.5 115,-178.5 115,-153.5 8,-153.5"/>
<text text-anchor="start" x="19" y="-162.3" font-family="Times New Roman,serif" font-size="14.00">registrar_libros</text>
<polygon fill="none" stroke="black" points="115,-153.5 115,-178.5 199,-178.5 199,-153.5 115,-153.5"/>
<text text-anchor="start" x="125.5" y="-162.3" font-family="Times New Roman,serif" font-size="14.00">FUNCION</text>
<polygon fill="none" stroke="black" points="199,-153.5 199,-178.5 293,-178.5 293,-153.5 199,-153.5"/>
<text text-anchor="start" x="204" y="-162.3" font-family="Times New Roman,serif" font-size="14.00">Vec &#45;ERROR&#45;</text>
<polygon fill="none" stroke="black" points="293,-153.5 293,-178.5 342,-178.5 342,-153.5 293,-153.5"/>
<text text-anchor="start" x="298.5" y="-162.3" font-family="Times New Roman,serif" font-size="14.00">Global</text>
<polygon fill="none" stroke="black" points="342,-153.5 342,-178.5 373,-178.5 373,-153.5 342,-153.5"/>
<text text-anchor="start" x="347" y="-162.3" font-family="Times New Roman,serif" font-size="14.00">397</text>
<polygon fill="none" stroke="black" points="373,-153.5 373,-178.5 430,-178.5 430,-153.5 373,-153.5"/>
<text text-anchor="start" x="398" y="-162.3" font-family="Times New Roman,serif" font-size="14.00">0</text>
<polygon fill="none" stroke="black" points="8,-128.5 8,-153.5 115,-153.5 115,-128.5 8,-128.5"/>
<text text-anchor="start" x="13" y="-137.3" font-family="Times New Roman,serif" font-size="14.00">registrar_lectores</text>
<polygon fill="none" stroke="black" points="115,-128.5 115,-153.5 199,-153.5 199,-128.5 115,-128.5"/>
<text text-anchor="start" x="125.5" y="-137.3" font-family="Times New Roman,serif" font-size="14.00">FUNCION</text>
<polygon fill="none" stroke="black" points="199,-128.5 199,-153.5 293,-153.5 293,-128.5 199,-128.5"/>
<text text-anchor="start" x="204" y="-137.3" font-family="Times New Roman,serif" font-size="14.00">Vec &#45;ERROR&#45;</text>
<polygon fill="none" stroke="black" points="293,-128.5 293,-153.5 342,-153.5 342,-128.5 293,-128.5"/>
<text text-anchor="start" x="298.5" y="-137.3" font-family="Times New Roman,serif" font-size="14.00">Global</text>
<polygon fill="none" stroke="black" points="342,-128.5 342,-153.5 373,-153.5 373,-128.5 342,-128.5"/>
<text text-anchor="start" x="347" y="-137.3" font-family="Times New Roman,serif" font-size="14.00">414</text>
<polygon fill="none" stroke="black" points="373,-128.5 373,-153.5 430,-153.5 430,-128.5 373,-128.5"/>
<text text-anchor="start" x="398" y="-137.3" font-family="Times New Roman,serif" font-size="14.00">0</text>
<polygon fill="none" stroke="black" points="8,-103.5 8,-128.5 115,-128.5 115,-103.5 8,-103.5"/>
<text text-anchor="start" x="31.5" y="-112.3" font-family="Times New Roman,serif" font-size="14.00">tabla_libro</text>
<polygon fill="none" stroke="black" points="115,-103.5 115,-128.5 199,-128.5 199,-103.5 115,-103.5"/>
<text text-anchor="start" x="122" y="-112.3" font-family="Times New Roman,serif" font-size="14.00">VARIABLE</text>
<polygon fill="none" stroke="black" points="199,-103.5 199,-128.5 293,-128.5 293,-103.5 199,-103.5"/>
<text text-anchor="start" x="217" y="-112.3" font-family="Times New Roman,serif" font-size="14.00">VECTOR</text>
<polygon fill="none" stroke="black" points="293,-103.5 293,-128.5 342,-128.5 342,-103.5 293,-103.5"/>
<text text-anchor="start" x="301.5" y="-112.3" font-family="Times New Roman,serif" font-size="14.00">Local</text>
<polygon fill="none" stroke="black" points="342,-103.5 342,-128.5 373,-128.5 373,-103.5 342,-103.5"/>
<text text-anchor="start" x="347" y="-112.3" font-family="Times New Roman,serif" font-size="14.00">438</text>
<polygon fill="none" stroke="black" points="373,-103.5 373,-128.5 430,-128.5 430,-103.5 373,-103.5"/>
<text text-anchor="start" x="398" y="-112.3" font-family="Times New Roman,serif" font-size="14.00">4</text>
<polygon fill="none" stroke="black" points="8,-78.5 8,-103.5 115,-103.5 115,-78.5 8,-78.5"/>
<text text-anchor="start" x="28.5" y="-87.3" font-family="Times New Roman,serif" font-size="14.00">tabla_lector</text>
<polygon fill="none" stroke="black" points="115,-78.5 115,-103.5 199,-103.5 199,-78.5 115,-78.5"/>
<text text-anchor="start" x="122" y="-87.3" font-family="Times New Roman,serif" font-size="14.00">VARIABLE</text>
<polygon fill="none" stroke="black" points="199,-78.5 199,-103.5 293,-103.5 293,-78.5 199,-78.5"/>
<text text-anchor="start" x="217" y="-87.3" font-family="Times New Roman,serif" font-size="14.00">VECTOR</text>
<polygon fill="none" stroke="black" points="293,-78.5 293,-103.5 342,-103.5 342,-78.5 293,-78.5"/>
<text text-anchor="start" x="301.5" y="-87.3" font-family="Times New Roman,serif" font-size="14.00">Local</text>
<polygon fill="none" stroke="black" points="342,-78.5 342,-103.5 373,-103.5 373,-78.5 342,-78.5"/>
<text text-anchor="start" x="347" y="-87.3" font-family="Times New Roman,serif" font-size="14.00">439</text>
<polygon fill="none" stroke="black" points="373,-78.5 373,-103.5 430,-103.5 430,-78.5 373,-78.5"/>
<text text-anchor="start" x="398" y="-87.3" font-family="Times New Roman,serif" font-size="14.00">4</text>
<polygon fill="none" stroke="black" points="8,-53.5 8,-78.5 115,-78.5 115,-53.5 8,-53.5"/>
<text text-anchor="start" x="48" y="-62.3" font-family="Times New Roman,serif" font-size="14.00">tabla</text>
<polygon fill="none" stroke="black" points="115,-53.5 115,-78.5 199,-78.5 199,-53.5 115,-53.5"/>
<text text-anchor="start" x="122" y="-62.3" font-family="Times New Roman,serif" font-size="14.00">VARIABLE</text>
<polygon fill="none" stroke="black" points="199,-53.5 199,-78.5 293,-78.5 293,-53.5 199,-53.5"/>
<text text-anchor="start" x="217" y="-62.3" font-family="Times New Roman,serif" font-size="14.00">VECTOR</text>
<polygon fill="none" stroke="black" points="293,-53.5 293,-78.5 342,-78.5 342,-53.5 293,-53.5"/>
<text text-anchor="start" x="301.5" y="-62.3" font-family="Times New Roman,serif" font-size="14.00">Local</text>
<polygon fill="none" stroke="black" points="342,-53.5 342,-78.5 373,-78.5 373,-53.5 342,-53.5"/>
<text text-anchor="start" x="347" y="-62.3" font-family="Times New Roman,serif" font-size="14.00">397</text>
<polygon fill="none" stroke="black" points="373,-53.5 373,-78.5 430,-78.5 430,-53.5 373,-53.5"/>
<text text-anchor="start" x="394.5" y="-62.3" font-family="Times New Roman,serif" font-size="14.00">20</text>
<polygon fill="none" stroke="black" points="8,-28.5 8,-53.5 115,-53.5 115,-28.5 8,-28.5"/>
<text text-anchor="start" x="45.5" y="-37.3" font-family="Times New Roman,serif" font-size="14.00">libros</text>
<polygon fill="none" stroke="black" points="115,-28.5 115,-53.5 199,-53.5 199,-28.5 115,-28.5"/>
<text text-anchor="start" x="122" y="-37.3" font-family="Times New Roman,serif" font-size="14.00">VARIABLE</text>
<polygon fill="none" stroke="black" points="199,-28.5 199,-53.5 293,-53.5 293,-28.5 199,-28.5"/>
<text text-anchor="start" x="221.5" y="-37.3" font-family="Times New Roman,serif" font-size="14.00">ARRAY</text>
<polygon fill="none" stroke="black" points="293,-28.5 293,-53.5 342,-53.5 342,-28.5 293,-28.5"/>
<text text-anchor="start" x="301.5" y="-37.3" font-family="Times New Roman,serif" font-size="14.00">Local</text>
<polygon fill="none" stroke="black" points="342,-28.5 342,-53.5 373,-53.5 373,-28.5 342,-28.5"/>
<text text-anchor="start" x="347" y="-37.3" font-family="Times New Roman,serif" font-size="14.00">399</text>
<polygon fill="none" stroke="black" points="373,-28.5 373,-53.5 430,-53.5 430,-28.5 373,-28.5"/>
<text text-anchor="start" x="398" y="-37.3" font-family="Times New Roman,serif" font-size="14.00">4</text>
<polygon fill="none" stroke="black" points="8,-3.5 8,-28.5 115,-28.5 115,-3.5 8,-3.5"/>
<text text-anchor="start" x="48.5" y="-12.3" font-family="Times New Roman,serif" font-size="14.00">libro</text>
<polygon fill="none" stroke="black" points="115,-3.5 115,-28.5 199,-28.5 199,-3.5 115,-3.5"/>
<text text-anchor="start" x="122" y="-12.3" font-family="Times New Roman,serif" font-size="14.00">VARIABLE</text>
<polygon fill="none" stroke="black" points="199,-3.5 199,-28.5 293,-28.5 293,-3.5 199,-3.5"/>
<text text-anchor="start" x="221.5" y="-12.3" font-family="Times New Roman,serif" font-size="14.00">ARRAY</text>
<polygon fill="none" stroke="black" points="293,-3.5 293,-28.5 342,-28.5 342,-3.5 293,-3.5"/>
<text text-anchor="start" x="301.5" y="-12.3" font-family="Times New Roman,serif" font-size="14.00">Local</text>
<polygon fill="none" stroke="black" points="342,-3.5 342,-28.5 373,-28.5 373,-3.5 342,-3.5"/>
<text text-anchor="start" x="347" y="-12.3" font-family="Times New Roman,serif" font-size="14.00">407</text>
<polygon fill="none" stroke="black" points="373,-3.5 373,-28.5 430,-28.5 430,-3.5 373,-3.5"/>
<text text-anchor="start" x="398" y="-12.3" font-family="Times New Roman,serif" font-size="14.00">4</text>
</g>
</g>
</svg>
