<?xml version="1.0" encoding="UTF-8" standalone="no"?>
<!DOCTYPE svg PUBLIC "-//W3C//DTD SVG 1.1//EN"
 "http://www.w3.org/Graphics/SVG/1.1/DTD/svg11.dtd">
<!-- Generated by graphviz version 3.0.0 (20220226.1711)
 -->
<!-- Pages: 1 -->
<svg width="446pt" height="612pt"
 viewBox="0.00 0.00 446.00 612.00" xmlns="http://www.w3.org/2000/svg" xmlns:xlink="http://www.w3.org/1999/xlink">
<g id="graph0" class="graph" transform="scale(1 1) rotate(0) translate(4 608)">
<polygon fill="white" stroke="transparent" points="-4,4 -4,-608 442,-608 442,4 -4,4"/>
<!-- tablaSimbolos -->
<g id="node1" class="node">
<title>tablaSimbolos</title>
<polygon fill="none" stroke="black" points="8,-579 8,-600 115,-600 115,-579 8,-579"/>
<text text-anchor="start" x="55" y="-585.8" font-family="Times New Roman,serif" font-size="14.00">Id</text>
<polygon fill="none" stroke="black" points="115,-579 115,-600 199,-600 199,-579 115,-579"/>
<text text-anchor="start" x="118" y="-585.8" font-family="Times New Roman,serif" font-size="14.00">Tipo símbolo</text>
<polygon fill="none" stroke="black" points="199,-579 199,-600 293,-600 293,-579 199,-579"/>
<text text-anchor="start" x="218" y="-585.8" font-family="Times New Roman,serif" font-size="14.00">Tipo dato</text>
<polygon fill="none" stroke="black" points="293,-579 293,-600 342,-600 342,-579 293,-579"/>
<text text-anchor="start" x="296" y="-585.8" font-family="Times New Roman,serif" font-size="14.00">Ámbito</text>
<polygon fill="none" stroke="black" points="342,-579 342,-600 373,-600 373,-579 342,-579"/>
<text text-anchor="start" x="347" y="-585.8" font-family="Times New Roman,serif" font-size="14.00">Fila</text>
<polygon fill="none" stroke="black" points="373,-579 373,-600 430,-600 430,-579 373,-579"/>
<text text-anchor="start" x="376" y="-585.8" font-family="Times New Roman,serif" font-size="14.00">Columna</text>
<polygon fill="none" stroke="black" points="8,-554 8,-579 115,-579 115,-554 8,-554"/>
<text text-anchor="start" x="46" y="-562.8" font-family="Times New Roman,serif" font-size="14.00">Libro</text>
<polygon fill="none" stroke="black" points="115,-554 115,-579 199,-579 199,-554 115,-554"/>
<text text-anchor="start" x="122" y="-562.8" font-family="Times New Roman,serif" font-size="14.00">VARIABLE</text>
<polygon fill="none" stroke="black" points="199,-554 199,-579 293,-579 293,-554 199,-554"/>
<text text-anchor="start" x="218" y="-562.8" font-family="Times New Roman,serif" font-size="14.00">STRUCT</text>
<polygon fill="none" stroke="black" points="293,-554 293,-579 342,-579 342,-554 293,-554"/>
<text text-anchor="start" x="301.5" y="-562.8" font-family="Times New Roman,serif" font-size="14.00">Local</text>
<polygon fill="none" stroke="black" points="342,-554 342,-579 373,-579 373,-554 342,-554"/>
<text text-anchor="start" x="354" y="-562.8" font-family="Times New Roman,serif" font-size="14.00">8</text>
<polygon fill="none" stroke="black" points="373,-554 373,-579 430,-579 430,-554 373,-554"/>
<text text-anchor="start" x="394.5" y="-562.8" font-family="Times New Roman,serif" font-size="14.00">19</text>
<polygon fill="none" stroke="black" points="8,-529 8,-554 115,-554 115,-529 8,-529"/>
<text text-anchor="start" x="28" y="-537.8" font-family="Times New Roman,serif" font-size="14.00">create_table</text>
<polygon fill="none" stroke="black" points="115,-529 115,-554 199,-554 199,-529 115,-529"/>
<text text-anchor="start" x="125.5" y="-537.8" font-family="Times New Roman,serif" font-size="14.00">FUNCION</text>
<polygon fill="none" stroke="black" points="199,-529 199,-554 293,-554 293,-529 199,-529"/>
<text text-anchor="start" x="212.5" y="-537.8" font-family="Times New Roman,serif" font-size="14.00">Vec &#45;Libro&#45;</text>
<polygon fill="none" stroke="black" points="293,-529 293,-554 342,-554 342,-529 293,-529"/>
<text text-anchor="start" x="301.5" y="-537.8" font-family="Times New Roman,serif" font-size="14.00">Local</text>
<polygon fill="none" stroke="black" points="342,-529 342,-554 373,-554 373,-529 342,-529"/>
<text text-anchor="start" x="350.5" y="-537.8" font-family="Times New Roman,serif" font-size="14.00">24</text>
<polygon fill="none" stroke="black" points="373,-529 373,-554 430,-554 430,-529 373,-529"/>
<text text-anchor="start" x="394.5" y="-537.8" font-family="Times New Roman,serif" font-size="14.00">12</text>
<polygon fill="none" stroke="black" points="8,-504 8,-529 115,-529 115,-504 8,-504"/>
<text text-anchor="start" x="25.5" y="-512.8" font-family="Times New Roman,serif" font-size="14.00">select_by_id</text>
<polygon fill="none" stroke="black" points="115,-504 115,-529 199,-529 199,-504 115,-504"/>
<text text-anchor="start" x="125.5" y="-512.8" font-family="Times New Roman,serif" font-size="14.00">FUNCION</text>
<polygon fill="none" stroke="black" points="199,-504 199,-529 293,-529 293,-504 199,-504"/>
<text text-anchor="start" x="230.5" y="-512.8" font-family="Times New Roman,serif" font-size="14.00">Libro</text>
<polygon fill="none" stroke="black" points="293,-504 293,-529 342,-529 342,-504 293,-504"/>
<text text-anchor="start" x="301.5" y="-512.8" font-family="Times New Roman,serif" font-size="14.00">Local</text>
<polygon fill="none" stroke="black" points="342,-504 342,-529 373,-529 373,-504 342,-504"/>
<text text-anchor="start" x="350.5" y="-512.8" font-family="Times New Roman,serif" font-size="14.00">50</text>
<polygon fill="none" stroke="black" points="373,-504 373,-529 430,-529 430,-504 373,-504"/>
<text text-anchor="start" x="394.5" y="-512.8" font-family="Times New Roman,serif" font-size="14.00">12</text>
<polygon fill="none" stroke="black" points="8,-479 8,-504 115,-504 115,-479 8,-479"/>
<text text-anchor="start" x="45.5" y="-487.8" font-family="Times New Roman,serif" font-size="14.00">select</text>
<polygon fill="none" stroke="black" points="115,-479 115,-504 199,-504 199,-479 115,-479"/>
<text text-anchor="start" x="125.5" y="-487.8" font-family="Times New Roman,serif" font-size="14.00">FUNCION</text>
<polygon fill="none" stroke="black" points="199,-479 199,-504 293,-504 293,-479 199,-479"/>
<text text-anchor="start" x="228.5" y="-487.8" font-family="Times New Roman,serif" font-size="14.00">VOID</text>
<polygon fill="none" stroke="black" points="293,-479 293,-504 342,-504 342,-479 293,-479"/>
<text text-anchor="start" x="301.5" y="-487.8" font-family="Times New Roman,serif" font-size="14.00">Local</text>
<polygon fill="none" stroke="black" points="342,-479 342,-504 373,-504 373,-479 342,-479"/>
<text text-anchor="start" x="350.5" y="-487.8" font-family="Times New Roman,serif" font-size="14.00">78</text>
<polygon fill="none" stroke="black" points="373,-479 373,-504 430,-504 430,-479 373,-479"/>
<text text-anchor="start" x="394.5" y="-487.8" font-family="Times New Roman,serif" font-size="14.00">12</text>
<polygon fill="none" stroke="black" points="8,-454 8,-479 115,-479 115,-454 8,-454"/>
<text text-anchor="start" x="43" y="-462.8" font-family="Times New Roman,serif" font-size="14.00">inserts</text>
<polygon fill="none" stroke="black" points="115,-454 115,-479 199,-479 199,-454 115,-454"/>
<text text-anchor="start" x="125.5" y="-462.8" font-family="Times New Roman,serif" font-size="14.00">FUNCION</text>
<polygon fill="none" stroke="black" points="199,-454 199,-479 293,-479 293,-454 199,-454"/>
<text text-anchor="start" x="212.5" y="-462.8" font-family="Times New Roman,serif" font-size="14.00">Vec &#45;Libro&#45;</text>
<polygon fill="none" stroke="black" points="293,-454 293,-479 342,-479 342,-454 293,-454"/>
<text text-anchor="start" x="301.5" y="-462.8" font-family="Times New Roman,serif" font-size="14.00">Local</text>
<polygon fill="none" stroke="black" points="342,-454 342,-479 373,-479 373,-454 342,-454"/>
<text text-anchor="start" x="347" y="-462.8" font-family="Times New Roman,serif" font-size="14.00">102</text>
<polygon fill="none" stroke="black" points="373,-454 373,-479 430,-479 430,-454 373,-454"/>
<text text-anchor="start" x="394.5" y="-462.8" font-family="Times New Roman,serif" font-size="14.00">12</text>
<polygon fill="none" stroke="black" points="8,-429 8,-454 115,-454 115,-429 8,-429"/>
<text text-anchor="start" x="42.5" y="-437.8" font-family="Times New Roman,serif" font-size="14.00">update</text>
<polygon fill="none" stroke="black" points="115,-429 115,-454 199,-454 199,-429 115,-429"/>
<text text-anchor="start" x="125.5" y="-437.8" font-family="Times New Roman,serif" font-size="14.00">FUNCION</text>
<polygon fill="none" stroke="black" points="199,-429 199,-454 293,-454 293,-429 199,-429"/>
<text text-anchor="start" x="212.5" y="-437.8" font-family="Times New Roman,serif" font-size="14.00">Vec &#45;Libro&#45;</text>
<polygon fill="none" stroke="black" points="293,-429 293,-454 342,-454 342,-429 293,-429"/>
<text text-anchor="start" x="301.5" y="-437.8" font-family="Times New Roman,serif" font-size="14.00">Local</text>
<polygon fill="none" stroke="black" points="342,-429 342,-454 373,-454 373,-429 342,-429"/>
<text text-anchor="start" x="347" y="-437.8" font-family="Times New Roman,serif" font-size="14.00">131</text>
<polygon fill="none" stroke="black" points="373,-429 373,-454 430,-454 430,-429 373,-429"/>
<text text-anchor="start" x="394.5" y="-437.8" font-family="Times New Roman,serif" font-size="14.00">12</text>
<polygon fill="none" stroke="black" points="8,-404 8,-429 115,-429 115,-404 8,-404"/>
<text text-anchor="start" x="15.5" y="-412.8" font-family="Times New Roman,serif" font-size="14.00">update_by_filter</text>
<polygon fill="none" stroke="black" points="115,-404 115,-429 199,-429 199,-404 115,-404"/>
<text text-anchor="start" x="125.5" y="-412.8" font-family="Times New Roman,serif" font-size="14.00">FUNCION</text>
<polygon fill="none" stroke="black" points="199,-404 199,-429 293,-429 293,-404 199,-404"/>
<text text-anchor="start" x="212.5" y="-412.8" font-family="Times New Roman,serif" font-size="14.00">Vec &#45;Libro&#45;</text>
<polygon fill="none" stroke="black" points="293,-404 293,-429 342,-429 342,-404 293,-404"/>
<text text-anchor="start" x="301.5" y="-412.8" font-family="Times New Roman,serif" font-size="14.00">Local</text>
<polygon fill="none" stroke="black" points="342,-404 342,-429 373,-429 373,-404 342,-404"/>
<text text-anchor="start" x="347" y="-412.8" font-family="Times New Roman,serif" font-size="14.00">158</text>
<polygon fill="none" stroke="black" points="373,-404 373,-429 430,-429 430,-404 373,-404"/>
<text text-anchor="start" x="394.5" y="-412.8" font-family="Times New Roman,serif" font-size="14.00">12</text>
<polygon fill="none" stroke="black" points="8,-379 8,-404 115,-404 115,-379 8,-379"/>
<text text-anchor="start" x="25" y="-387.8" font-family="Times New Roman,serif" font-size="14.00">delete_by_id</text>
<polygon fill="none" stroke="black" points="115,-379 115,-404 199,-404 199,-379 115,-379"/>
<text text-anchor="start" x="125.5" y="-387.8" font-family="Times New Roman,serif" font-size="14.00">FUNCION</text>
<polygon fill="none" stroke="black" points="199,-379 199,-404 293,-404 293,-379 199,-379"/>
<text text-anchor="start" x="212.5" y="-387.8" font-family="Times New Roman,serif" font-size="14.00">Vec &#45;Libro&#45;</text>
<polygon fill="none" stroke="black" points="293,-379 293,-404 342,-404 342,-379 293,-379"/>
<text text-anchor="start" x="301.5" y="-387.8" font-family="Times New Roman,serif" font-size="14.00">Local</text>
<polygon fill="none" stroke="black" points="342,-379 342,-404 373,-404 373,-379 342,-379"/>
<text text-anchor="start" x="347" y="-387.8" font-family="Times New Roman,serif" font-size="14.00">191</text>
<polygon fill="none" stroke="black" points="373,-379 373,-404 430,-404 430,-379 373,-379"/>
<text text-anchor="start" x="394.5" y="-387.8" font-family="Times New Roman,serif" font-size="14.00">12</text>
<polygon fill="none" stroke="black" points="8,-354 8,-379 115,-379 115,-354 8,-354"/>
<text text-anchor="start" x="48.5" y="-362.8" font-family="Times New Roman,serif" font-size="14.00">libro</text>
<polygon fill="none" stroke="black" points="115,-354 115,-379 199,-379 199,-354 115,-354"/>
<text text-anchor="start" x="126.5" y="-362.8" font-family="Times New Roman,serif" font-size="14.00">MODULO</text>
<polygon fill="none" stroke="black" points="199,-354 199,-379 293,-379 293,-354 199,-354"/>
<polygon fill="none" stroke="black" points="293,-354 293,-379 342,-379 342,-354 293,-354"/>
<text text-anchor="start" x="301.5" y="-362.8" font-family="Times New Roman,serif" font-size="14.00">Local</text>
<polygon fill="none" stroke="black" points="342,-354 342,-379 373,-379 373,-354 342,-354"/>
<text text-anchor="start" x="354" y="-362.8" font-family="Times New Roman,serif" font-size="14.00">5</text>
<polygon fill="none" stroke="black" points="373,-354 373,-379 430,-379 430,-354 373,-354"/>
<text text-anchor="start" x="398" y="-362.8" font-family="Times New Roman,serif" font-size="14.00">4</text>
<polygon fill="none" stroke="black" points="8,-329 8,-354 115,-354 115,-329 8,-329"/>
<text text-anchor="start" x="43" y="-337.8" font-family="Times New Roman,serif" font-size="14.00">Lector</text>
<polygon fill="none" stroke="black" points="115,-329 115,-354 199,-354 199,-329 115,-329"/>
<text text-anchor="start" x="122" y="-337.8" font-family="Times New Roman,serif" font-size="14.00">VARIABLE</text>
<polygon fill="none" stroke="black" points="199,-329 199,-354 293,-354 293,-329 199,-329"/>
<text text-anchor="start" x="218" y="-337.8" font-family="Times New Roman,serif" font-size="14.00">STRUCT</text>
<polygon fill="none" stroke="black" points="293,-329 293,-354 342,-354 342,-329 293,-329"/>
<text text-anchor="start" x="301.5" y="-337.8" font-family="Times New Roman,serif" font-size="14.00">Local</text>
<polygon fill="none" stroke="black" points="342,-329 342,-354 373,-354 373,-329 342,-329"/>
<text text-anchor="start" x="347" y="-337.8" font-family="Times New Roman,serif" font-size="14.00">206</text>
<polygon fill="none" stroke="black" points="373,-329 373,-354 430,-354 430,-329 373,-329"/>
<text text-anchor="start" x="394.5" y="-337.8" font-family="Times New Roman,serif" font-size="14.00">19</text>
<polygon fill="none" stroke="black" points="8,-304 8,-329 115,-329 115,-304 8,-304"/>
<text text-anchor="start" x="28" y="-312.8" font-family="Times New Roman,serif" font-size="14.00">create_table</text>
<polygon fill="none" stroke="black" points="115,-304 115,-329 199,-329 199,-304 115,-304"/>
<text text-anchor="start" x="125.5" y="-312.8" font-family="Times New Roman,serif" font-size="14.00">FUNCION</text>
<polygon fill="none" stroke="black" points="199,-304 199,-329 293,-329 293,-304 199,-304"/>
<text text-anchor="start" x="209.5" y="-312.8" font-family="Times New Roman,serif" font-size="14.00">Vec &#45;Lector&#45;</text>
<polygon fill="none" stroke="black" points="293,-304 293,-329 342,-329 342,-304 293,-304"/>
<text text-anchor="start" x="301.5" y="-312.8" font-family="Times New Roman,serif" font-size="14.00">Local</text>
<polygon fill="none" stroke="black" points="342,-304 342,-329 373,-329 373,-304 342,-304"/>
<text text-anchor="start" x="347" y="-312.8" font-family="Times New Roman,serif" font-size="14.00">222</text>
<polygon fill="none" stroke="black" points="373,-304 373,-329 430,-329 430,-304 373,-304"/>
<text text-anchor="start" x="394.5" y="-312.8" font-family="Times New Roman,serif" font-size="14.00">12</text>
<polygon fill="none" stroke="black" points="8,-279 8,-304 115,-304 115,-279 8,-279"/>
<text text-anchor="start" x="25.5" y="-287.8" font-family="Times New Roman,serif" font-size="14.00">select_by_id</text>
<polygon fill="none" stroke="black" points="115,-279 115,-304 199,-304 199,-279 115,-279"/>
<text text-anchor="start" x="125.5" y="-287.8" font-family="Times New Roman,serif" font-size="14.00">FUNCION</text>
<polygon fill="none" stroke="black" points="199,-279 199,-304 293,-304 293,-279 199,-279"/>
<text text-anchor="start" x="227.5" y="-287.8" font-family="Times New Roman,serif" font-size="14.00">Lector</text>
<polygon fill="none" stroke="black" points="293,-279 293,-304 342,-304 342,-279 293,-279"/>
<text text-anchor="start" x="301.5" y="-287.8" font-family="Times New Roman,serif" font-size="14.00">Local</text>
<polygon fill="none" stroke="black" points="342,-279 342,-304 373,-304 373,-279 342,-279"/>
<text text-anchor="start" x="347" y="-287.8" font-family="Times New Roman,serif" font-size="14.00">248</text>
<polygon fill="none" stroke="black" points="373,-279 373,-304 430,-304 430,-279 373,-279"/>
<text text-anchor="start" x="394.5" y="-287.8" font-family="Times New Roman,serif" font-size="14.00">12</text>
<polygon fill="none" stroke="black" points="8,-254 8,-279 115,-279 115,-254 8,-254"/>
<text text-anchor="start" x="45.5" y="-262.8" font-family="Times New Roman,serif" font-size="14.00">select</text>
<polygon fill="none" stroke="black" points="115,-254 115,-279 199,-279 199,-254 115,-254"/>
<text text-anchor="start" x="125.5" y="-262.8" font-family="Times New Roman,serif" font-size="14.00">FUNCION</text>
<polygon fill="none" stroke="black" points="199,-254 199,-279 293,-279 293,-254 199,-254"/>
<text text-anchor="start" x="228.5" y="-262.8" font-family="Times New Roman,serif" font-size="14.00">VOID</text>
<polygon fill="none" stroke="black" points="293,-254 293,-279 342,-279 342,-254 293,-254"/>
<text text-anchor="start" x="301.5" y="-262.8" font-family="Times New Roman,serif" font-size="14.00">Local</text>
<polygon fill="none" stroke="black" points="342,-254 342,-279 373,-279 373,-254 342,-254"/>
<text text-anchor="start" x="347" y="-262.8" font-family="Times New Roman,serif" font-size="14.00">277</text>
<polygon fill="none" stroke="black" points="373,-254 373,-279 430,-279 430,-254 373,-254"/>
<text text-anchor="start" x="394.5" y="-262.8" font-family="Times New Roman,serif" font-size="14.00">12</text>
<polygon fill="none" stroke="black" points="8,-229 8,-254 115,-254 115,-229 8,-229"/>
<text text-anchor="start" x="43" y="-237.8" font-family="Times New Roman,serif" font-size="14.00">inserts</text>
<polygon fill="none" stroke="black" points="115,-229 115,-254 199,-254 199,-229 115,-229"/>
<text text-anchor="start" x="125.5" y="-237.8" font-family="Times New Roman,serif" font-size="14.00">FUNCION</text>
<polygon fill="none" stroke="black" points="199,-229 199,-254 293,-254 293,-229 199,-229"/>
<text text-anchor="start" x="209.5" y="-237.8" font-family="Times New Roman,serif" font-size="14.00">Vec &#45;Lector&#45;</text>
<polygon fill="none" stroke="black" points="293,-229 293,-254 342,-254 342,-229 293,-229"/>
<text text-anchor="start" x="301.5" y="-237.8" font-family="Times New Roman,serif" font-size="14.00">Local</text>
<polygon fill="none" stroke="black" points="342,-229 342,-254 373,-254 373,-229 342,-229"/>
<text text-anchor="start" x="347" y="-237.8" font-family="Times New Roman,serif" font-size="14.00">301</text>
<polygon fill="none" stroke="black" points="373,-229 373,-254 430,-254 430,-229 373,-229"/>
<text text-anchor="start" x="394.5" y="-237.8" font-family="Times New Roman,serif" font-size="14.00">12</text>
<polygon fill="none" stroke="black" points="8,-204 8,-229 115,-229 115,-204 8,-204"/>
<text text-anchor="start" x="42.5" y="-212.8" font-family="Times New Roman,serif" font-size="14.00">update</text>
<polygon fill="none" stroke="black" points="115,-204 115,-229 199,-229 199,-204 115,-204"/>
<text text-anchor="start" x="125.5" y="-212.8" font-family="Times New Roman,serif" font-size="14.00">FUNCION</text>
<polygon fill="none" stroke="black" points="199,-204 199,-229 293,-229 293,-204 199,-204"/>
<text text-anchor="start" x="209.5" y="-212.8" font-family="Times New Roman,serif" font-size="14.00">Vec &#45;Lector&#45;</text>
<polygon fill="none" stroke="black" points="293,-204 293,-229 342,-229 342,-204 293,-204"/>
<text text-anchor="start" x="301.5" y="-212.8" font-family="Times New Roman,serif" font-size="14.00">Local</text>
<polygon fill="none" stroke="black" points="342,-204 342,-229 373,-229 373,-204 342,-204"/>
<text text-anchor="start" x="347" y="-212.8" font-family="Times New Roman,serif" font-size="14.00">330</text>
<polygon fill="none" stroke="black" points="373,-204 373,-229 430,-229 430,-204 373,-204"/>
<text text-anchor="start" x="394.5" y="-212.8" font-family="Times New Roman,serif" font-size="14.00">12</text>
<polygon fill="none" stroke="black" points="8,-179 8,-204 115,-204 115,-179 8,-179"/>
<text text-anchor="start" x="15.5" y="-187.8" font-family="Times New Roman,serif" font-size="14.00">update_by_filter</text>
<polygon fill="none" stroke="black" points="115,-179 115,-204 199,-204 199,-179 115,-179"/>
<text text-anchor="start" x="125.5" y="-187.8" font-family="Times New Roman,serif" font-size="14.00">FUNCION</text>
<polygon fill="none" stroke="black" points="199,-179 199,-204 293,-204 293,-179 199,-179"/>
<text text-anchor="start" x="209.5" y="-187.8" font-family="Times New Roman,serif" font-size="14.00">Vec &#45;Lector&#45;</text>
<polygon fill="none" stroke="black" points="293,-179 293,-204 342,-204 342,-179 293,-179"/>
<text text-anchor="start" x="301.5" y="-187.8" font-family="Times New Roman,serif" font-size="14.00">Local</text>
<polygon fill="none" stroke="black" points="342,-179 342,-204 373,-204 373,-179 342,-179"/>
<text text-anchor="start" x="347" y="-187.8" font-family="Times New Roman,serif" font-size="14.00">357</text>
<polygon fill="none" stroke="black" points="373,-179 373,-204 430,-204 430,-179 373,-179"/>
<text text-anchor="start" x="394.5" y="-187.8" font-family="Times New Roman,serif" font-size="14.00">12</text>
<polygon fill="none" stroke="black" points="8,-154 8,-179 115,-179 115,-154 8,-154"/>
<text text-anchor="start" x="25" y="-162.8" font-family="Times New Roman,serif" font-size="14.00">delete_by_id</text>
<polygon fill="none" stroke="black" points="115,-154 115,-179 199,-179 199,-154 115,-154"/>
<text text-anchor="start" x="125.5" y="-162.8" font-family="Times New Roman,serif" font-size="14.00">FUNCION</text>
<polygon fill="none" stroke="black" points="199,-154 199,-179 293,-179 293,-154 199,-154"/>
<text text-anchor="start" x="209.5" y="-162.8" font-family="Times New Roman,serif" font-size="14.00">Vec &#45;Lector&#45;</text>
<polygon fill="none" stroke="black" points="293,-154 293,-179 342,-179 342,-154 293,-154"/>
<text text-anchor="start" x="301.5" y="-162.8" font-family="Times New Roman,serif" font-size="14.00">Local</text>
<polygon fill="none" stroke="black" points="342,-154 342,-179 373,-179 373,-154 342,-154"/>
<text text-anchor="start" x="347" y="-162.8" font-family="Times New Roman,serif" font-size="14.00">385</text>
<polygon fill="none" stroke="black" points="373,-154 373,-179 430,-179 430,-154 373,-154"/>
<text text-anchor="start" x="394.5" y="-162.8" font-family="Times New Roman,serif" font-size="14.00">12</text>
<polygon fill="none" stroke="black" points="8,-129 8,-154 115,-154 115,-129 8,-129"/>
<text text-anchor="start" x="45.5" y="-137.8" font-family="Times New Roman,serif" font-size="14.00">lector</text>
<polygon fill="none" stroke="black" points="115,-129 115,-154 199,-154 199,-129 115,-129"/>
<text text-anchor="start" x="126.5" y="-137.8" font-family="Times New Roman,serif" font-size="14.00">MODULO</text>
<polygon fill="none" stroke="black" points="199,-129 199,-154 293,-154 293,-129 199,-129"/>
<polygon fill="none" stroke="black" points="293,-129 293,-154 342,-154 342,-129 293,-129"/>
<text text-anchor="start" x="301.5" y="-137.8" font-family="Times New Roman,serif" font-size="14.00">Local</text>
<polygon fill="none" stroke="black" points="342,-129 342,-154 373,-154 373,-129 342,-129"/>
<text text-anchor="start" x="347" y="-137.8" font-family="Times New Roman,serif" font-size="14.00">203</text>
<polygon fill="none" stroke="black" points="373,-129 373,-154 430,-154 430,-129 373,-129"/>
<text text-anchor="start" x="398" y="-137.8" font-family="Times New Roman,serif" font-size="14.00">4</text>
<polygon fill="none" stroke="black" points="8,-104 8,-129 115,-129 115,-104 8,-104"/>
<text text-anchor="start" x="34" y="-112.8" font-family="Times New Roman,serif" font-size="14.00">biblioteca</text>
<polygon fill="none" stroke="black" points="115,-104 115,-129 199,-129 199,-104 115,-104"/>
<text text-anchor="start" x="126.5" y="-112.8" font-family="Times New Roman,serif" font-size="14.00">MODULO</text>
<polygon fill="none" stroke="black" points="199,-104 199,-129 293,-129 293,-104 199,-104"/>
<polygon fill="none" stroke="black" points="293,-104 293,-129 342,-129 342,-104 293,-104"/>
<text text-anchor="start" x="298.5" y="-112.8" font-family="Times New Roman,serif" font-size="14.00">Global</text>
<polygon fill="none" stroke="black" points="342,-104 342,-129 373,-129 373,-104 342,-104"/>
<text text-anchor="start" x="354" y="-112.8" font-family="Times New Roman,serif" font-size="14.00">2</text>
<polygon fill="none" stroke="black" points="373,-104 373,-129 430,-129 430,-104 373,-104"/>
<text text-anchor="start" x="398" y="-112.8" font-family="Times New Roman,serif" font-size="14.00">0</text>
<polygon fill="none" stroke="black" points="8,-79 8,-104 115,-104 115,-79 8,-79"/>
<text text-anchor="start" x="19" y="-87.8" font-family="Times New Roman,serif" font-size="14.00">registrar_libros</text>
<polygon fill="none" stroke="black" points="115,-79 115,-104 199,-104 199,-79 115,-79"/>
<text text-anchor="start" x="125.5" y="-87.8" font-family="Times New Roman,serif" font-size="14.00">FUNCION</text>
<polygon fill="none" stroke="black" points="199,-79 199,-104 293,-104 293,-79 199,-79"/>
<text text-anchor="start" x="204" y="-87.8" font-family="Times New Roman,serif" font-size="14.00">Vec &#45;ERROR&#45;</text>
<polygon fill="none" stroke="black" points="293,-79 293,-104 342,-104 342,-79 293,-79"/>
<text text-anchor="start" x="298.5" y="-87.8" font-family="Times New Roman,serif" font-size="14.00">Global</text>
<polygon fill="none" stroke="black" points="342,-79 342,-104 373,-104 373,-79 342,-79"/>
<text text-anchor="start" x="347" y="-87.8" font-family="Times New Roman,serif" font-size="14.00">397</text>
<polygon fill="none" stroke="black" points="373,-79 373,-104 430,-104 430,-79 373,-79"/>
<text text-anchor="start" x="398" y="-87.8" font-family="Times New Roman,serif" font-size="14.00">0</text>
<polygon fill="none" stroke="black" points="8,-54 8,-79 115,-79 115,-54 8,-54"/>
<text text-anchor="start" x="13" y="-62.8" font-family="Times New Roman,serif" font-size="14.00">registrar_lectores</text>
<polygon fill="none" stroke="black" points="115,-54 115,-79 199,-79 199,-54 115,-54"/>
<text text-anchor="start" x="125.5" y="-62.8" font-family="Times New Roman,serif" font-size="14.00">FUNCION</text>
<polygon fill="none" stroke="black" points="199,-54 199,-79 293,-79 293,-54 199,-54"/>
<text text-anchor="start" x="204" y="-62.8" font-family="Times New Roman,serif" font-size="14.00">Vec &#45;ERROR&#45;</text>
<polygon fill="none" stroke="black" points="293,-54 293,-79 342,-79 342,-54 293,-54"/>
<text text-anchor="start" x="298.5" y="-62.8" font-family="Times New Roman,serif" font-size="14.00">Global</text>
<polygon fill="none" stroke="black" points="342,-54 342,-79 373,-79 373,-54 342,-54"/>
<text text-anchor="start" x="347" y="-62.8" font-family="Times New Roman,serif" font-size="14.00">414</text>
<polygon fill="none" stroke="black" points="373,-54 373,-79 430,-79 430,-54 373,-54"/>
<text text-anchor="start" x="398" y="-62.8" font-family="Times New Roman,serif" font-size="14.00">0</text>
<polygon fill="none" stroke="black" points="8,-29 8,-54 115,-54 115,-29 8,-29"/>
<text text-anchor="start" x="43.5" y="-37.8" font-family="Times New Roman,serif" font-size="14.00">vector</text>
<polygon fill="none" stroke="black" points="115,-29 115,-54 199,-54 199,-29 115,-29"/>
<text text-anchor="start" x="122" y="-37.8" font-family="Times New Roman,serif" font-size="14.00">VARIABLE</text>
<polygon fill="none" stroke="black" points="199,-29 199,-54 293,-54 293,-29 199,-29"/>
<text text-anchor="start" x="221.5" y="-37.8" font-family="Times New Roman,serif" font-size="14.00">ARRAY</text>
<polygon fill="none" stroke="black" points="293,-29 293,-54 342,-54 342,-29 293,-29"/>
<text text-anchor="start" x="301.5" y="-37.8" font-family="Times New Roman,serif" font-size="14.00">Local</text>
<polygon fill="none" stroke="black" points="342,-29 342,-54 373,-54 373,-29 342,-29"/>
<text text-anchor="start" x="347" y="-37.8" font-family="Times New Roman,serif" font-size="14.00">440</text>
<polygon fill="none" stroke="black" points="373,-29 373,-54 430,-54 430,-29 373,-29"/>
<text text-anchor="start" x="398" y="-37.8" font-family="Times New Roman,serif" font-size="14.00">4</text>
<polygon fill="none" stroke="black" points="8,-4 8,-29 115,-29 115,-4 8,-4"/>
<text text-anchor="start" x="36.5" y="-12.8" font-family="Times New Roman,serif" font-size="14.00">elemento</text>
<polygon fill="none" stroke="black" points="115,-4 115,-29 199,-29 199,-4 115,-4"/>
<text text-anchor="start" x="122" y="-12.8" font-family="Times New Roman,serif" font-size="14.00">VARIABLE</text>
<polygon fill="none" stroke="black" points="199,-4 199,-29 293,-29 293,-4 199,-4"/>
<text text-anchor="start" x="221.5" y="-12.8" font-family="Times New Roman,serif" font-size="14.00">ARRAY</text>
<polygon fill="none" stroke="black" points="293,-4 293,-29 342,-29 342,-4 293,-4"/>
<text text-anchor="start" x="301.5" y="-12.8" font-family="Times New Roman,serif" font-size="14.00">Local</text>
<polygon fill="none" stroke="black" points="342,-4 342,-29 373,-29 373,-4 342,-4"/>
<text text-anchor="start" x="347" y="-12.8" font-family="Times New Roman,serif" font-size="14.00">442</text>
<polygon fill="none" stroke="black" points="373,-4 373,-29 430,-29 430,-4 373,-4"/>
<text text-anchor="start" x="398" y="-12.8" font-family="Times New Roman,serif" font-size="14.00">4</text>
</g>
</g>
</svg>
