<?xml version="1.0" encoding="UTF-8" standalone="no"?>
<!DOCTYPE svg PUBLIC "-//W3C//DTD SVG 1.1//EN"
 "http://www.w3.org/Graphics/SVG/1.1/DTD/svg11.dtd">
<!-- Generated by graphviz version 3.0.0 (20220226.1711)
 -->
<!-- Pages: 1 -->
<svg width="392pt" height="387pt"
 viewBox="0.00 0.00 392.00 387.00" xmlns="http://www.w3.org/2000/svg" xmlns:xlink="http://www.w3.org/1999/xlink">
<g id="graph0" class="graph" transform="scale(1 1) rotate(0) translate(4 383)">
<polygon fill="white" stroke="transparent" points="-4,4 -4,-383 388,-383 388,4 -4,4"/>
<!-- tablaSimbolos -->
<g id="node1" class="node">
<title>tablaSimbolos</title>
<polygon fill="none" stroke="black" points="8,-353.5 8,-374.5 91,-374.5 91,-353.5 8,-353.5"/>
<text text-anchor="start" x="43" y="-360.3" font-family="Times New Roman,serif" font-size="14.00">Id</text>
<polygon fill="none" stroke="black" points="91,-353.5 91,-374.5 175,-374.5 175,-353.5 91,-353.5"/>
<text text-anchor="start" x="94" y="-360.3" font-family="Times New Roman,serif" font-size="14.00">Tipo símbolo</text>
<polygon fill="none" stroke="black" points="175,-353.5 175,-374.5 243,-374.5 243,-353.5 175,-353.5"/>
<text text-anchor="start" x="181" y="-360.3" font-family="Times New Roman,serif" font-size="14.00">Tipo dato</text>
<polygon fill="none" stroke="black" points="243,-353.5 243,-374.5 292,-374.5 292,-353.5 243,-353.5"/>
<text text-anchor="start" x="246" y="-360.3" font-family="Times New Roman,serif" font-size="14.00">Ámbito</text>
<polygon fill="none" stroke="black" points="292,-353.5 292,-374.5 319,-374.5 319,-353.5 292,-353.5"/>
<text text-anchor="start" x="295" y="-360.3" font-family="Times New Roman,serif" font-size="14.00">Fila</text>
<polygon fill="none" stroke="black" points="319,-353.5 319,-374.5 376,-374.5 376,-353.5 319,-353.5"/>
<text text-anchor="start" x="322" y="-360.3" font-family="Times New Roman,serif" font-size="14.00">Columna</text>
<polygon fill="none" stroke="black" points="8,-328.5 8,-353.5 91,-353.5 91,-328.5 8,-328.5"/>
<text text-anchor="start" x="20" y="-337.3" font-family="Times New Roman,serif" font-size="14.00">Enfermero</text>
<polygon fill="none" stroke="black" points="91,-328.5 91,-353.5 175,-353.5 175,-328.5 91,-328.5"/>
<text text-anchor="start" x="102.5" y="-337.3" font-family="Times New Roman,serif" font-size="14.00">MODULO</text>
<polygon fill="none" stroke="black" points="175,-328.5 175,-353.5 243,-353.5 243,-328.5 175,-328.5"/>
<polygon fill="none" stroke="black" points="243,-328.5 243,-353.5 292,-353.5 292,-328.5 243,-328.5"/>
<text text-anchor="start" x="251.5" y="-337.3" font-family="Times New Roman,serif" font-size="14.00">Local</text>
<polygon fill="none" stroke="black" points="292,-328.5 292,-353.5 319,-353.5 319,-328.5 292,-328.5"/>
<text text-anchor="start" x="302" y="-337.3" font-family="Times New Roman,serif" font-size="14.00">2</text>
<polygon fill="none" stroke="black" points="319,-328.5 319,-353.5 376,-353.5 376,-328.5 319,-328.5"/>
<text text-anchor="start" x="344" y="-337.3" font-family="Times New Roman,serif" font-size="14.00">4</text>
<polygon fill="none" stroke="black" points="8,-303.5 8,-328.5 91,-328.5 91,-303.5 8,-303.5"/>
<text text-anchor="start" x="23.5" y="-312.3" font-family="Times New Roman,serif" font-size="14.00">Personas</text>
<polygon fill="none" stroke="black" points="91,-303.5 91,-328.5 175,-328.5 175,-303.5 91,-303.5"/>
<text text-anchor="start" x="102.5" y="-312.3" font-family="Times New Roman,serif" font-size="14.00">MODULO</text>
<polygon fill="none" stroke="black" points="175,-303.5 175,-328.5 243,-328.5 243,-303.5 175,-303.5"/>
<polygon fill="none" stroke="black" points="243,-303.5 243,-328.5 292,-328.5 292,-303.5 243,-303.5"/>
<text text-anchor="start" x="248.5" y="-312.3" font-family="Times New Roman,serif" font-size="14.00">Global</text>
<polygon fill="none" stroke="black" points="292,-303.5 292,-328.5 319,-328.5 319,-303.5 292,-303.5"/>
<text text-anchor="start" x="302" y="-312.3" font-family="Times New Roman,serif" font-size="14.00">1</text>
<polygon fill="none" stroke="black" points="319,-303.5 319,-328.5 376,-328.5 376,-303.5 319,-303.5"/>
<text text-anchor="start" x="344" y="-312.3" font-family="Times New Roman,serif" font-size="14.00">0</text>
<polygon fill="none" stroke="black" points="8,-278.5 8,-303.5 91,-303.5 91,-278.5 8,-278.5"/>
<text text-anchor="start" x="29.5" y="-287.3" font-family="Times New Roman,serif" font-size="14.00">Azucar</text>
<polygon fill="none" stroke="black" points="91,-278.5 91,-303.5 175,-303.5 175,-278.5 91,-278.5"/>
<text text-anchor="start" x="102.5" y="-287.3" font-family="Times New Roman,serif" font-size="14.00">MODULO</text>
<polygon fill="none" stroke="black" points="175,-278.5 175,-303.5 243,-303.5 243,-278.5 175,-278.5"/>
<polygon fill="none" stroke="black" points="243,-278.5 243,-303.5 292,-303.5 292,-278.5 243,-278.5"/>
<text text-anchor="start" x="251.5" y="-287.3" font-family="Times New Roman,serif" font-size="14.00">Local</text>
<polygon fill="none" stroke="black" points="292,-278.5 292,-303.5 319,-303.5 319,-278.5 292,-278.5"/>
<text text-anchor="start" x="302" y="-287.3" font-family="Times New Roman,serif" font-size="14.00">9</text>
<polygon fill="none" stroke="black" points="319,-278.5 319,-303.5 376,-303.5 376,-278.5 319,-278.5"/>
<text text-anchor="start" x="344" y="-287.3" font-family="Times New Roman,serif" font-size="14.00">4</text>
<polygon fill="none" stroke="black" points="8,-253.5 8,-278.5 91,-278.5 91,-253.5 8,-253.5"/>
<text text-anchor="start" x="38.5" y="-262.3" font-family="Times New Roman,serif" font-size="14.00">Pan</text>
<polygon fill="none" stroke="black" points="91,-253.5 91,-278.5 175,-278.5 175,-253.5 91,-253.5"/>
<text text-anchor="start" x="102.5" y="-262.3" font-family="Times New Roman,serif" font-size="14.00">MODULO</text>
<polygon fill="none" stroke="black" points="175,-253.5 175,-278.5 243,-278.5 243,-253.5 175,-253.5"/>
<polygon fill="none" stroke="black" points="243,-253.5 243,-278.5 292,-278.5 292,-253.5 243,-253.5"/>
<text text-anchor="start" x="251.5" y="-262.3" font-family="Times New Roman,serif" font-size="14.00">Local</text>
<polygon fill="none" stroke="black" points="292,-253.5 292,-278.5 319,-278.5 319,-253.5 292,-253.5"/>
<text text-anchor="start" x="298.5" y="-262.3" font-family="Times New Roman,serif" font-size="14.00">12</text>
<polygon fill="none" stroke="black" points="319,-253.5 319,-278.5 376,-278.5 376,-253.5 319,-253.5"/>
<text text-anchor="start" x="344" y="-262.3" font-family="Times New Roman,serif" font-size="14.00">4</text>
<polygon fill="none" stroke="black" points="8,-228.5 8,-253.5 91,-253.5 91,-228.5 8,-228.5"/>
<text text-anchor="start" x="30" y="-237.3" font-family="Times New Roman,serif" font-size="14.00">Ventas</text>
<polygon fill="none" stroke="black" points="91,-228.5 91,-253.5 175,-253.5 175,-228.5 91,-228.5"/>
<text text-anchor="start" x="102.5" y="-237.3" font-family="Times New Roman,serif" font-size="14.00">MODULO</text>
<polygon fill="none" stroke="black" points="175,-228.5 175,-253.5 243,-253.5 243,-228.5 175,-228.5"/>
<polygon fill="none" stroke="black" points="243,-228.5 243,-253.5 292,-253.5 292,-228.5 243,-228.5"/>
<text text-anchor="start" x="248.5" y="-237.3" font-family="Times New Roman,serif" font-size="14.00">Global</text>
<polygon fill="none" stroke="black" points="292,-228.5 292,-253.5 319,-253.5 319,-228.5 292,-228.5"/>
<text text-anchor="start" x="302" y="-237.3" font-family="Times New Roman,serif" font-size="14.00">8</text>
<polygon fill="none" stroke="black" points="319,-228.5 319,-253.5 376,-253.5 376,-228.5 319,-228.5"/>
<text text-anchor="start" x="344" y="-237.3" font-family="Times New Roman,serif" font-size="14.00">0</text>
<polygon fill="none" stroke="black" points="8,-203.5 8,-228.5 91,-228.5 91,-203.5 8,-203.5"/>
<text text-anchor="start" x="32.5" y="-212.3" font-family="Times New Roman,serif" font-size="14.00">Llanta</text>
<polygon fill="none" stroke="black" points="91,-203.5 91,-228.5 175,-228.5 175,-203.5 91,-203.5"/>
<text text-anchor="start" x="102.5" y="-212.3" font-family="Times New Roman,serif" font-size="14.00">MODULO</text>
<polygon fill="none" stroke="black" points="175,-203.5 175,-228.5 243,-228.5 243,-203.5 175,-203.5"/>
<polygon fill="none" stroke="black" points="243,-203.5 243,-228.5 292,-228.5 292,-203.5 243,-203.5"/>
<text text-anchor="start" x="251.5" y="-212.3" font-family="Times New Roman,serif" font-size="14.00">Local</text>
<polygon fill="none" stroke="black" points="292,-203.5 292,-228.5 319,-228.5 319,-203.5 292,-203.5"/>
<text text-anchor="start" x="298.5" y="-212.3" font-family="Times New Roman,serif" font-size="14.00">19</text>
<polygon fill="none" stroke="black" points="319,-203.5 319,-228.5 376,-228.5 376,-203.5 319,-203.5"/>
<text text-anchor="start" x="344" y="-212.3" font-family="Times New Roman,serif" font-size="14.00">4</text>
<polygon fill="none" stroke="black" points="8,-178.5 8,-203.5 91,-203.5 91,-178.5 8,-178.5"/>
<text text-anchor="start" x="31" y="-187.3" font-family="Times New Roman,serif" font-size="14.00">Rueda</text>
<polygon fill="none" stroke="black" points="91,-178.5 91,-203.5 175,-203.5 175,-178.5 91,-178.5"/>
<text text-anchor="start" x="102.5" y="-187.3" font-family="Times New Roman,serif" font-size="14.00">MODULO</text>
<polygon fill="none" stroke="black" points="175,-178.5 175,-203.5 243,-203.5 243,-178.5 175,-178.5"/>
<polygon fill="none" stroke="black" points="243,-178.5 243,-203.5 292,-203.5 292,-178.5 243,-178.5"/>
<text text-anchor="start" x="251.5" y="-187.3" font-family="Times New Roman,serif" font-size="14.00">Local</text>
<polygon fill="none" stroke="black" points="292,-178.5 292,-203.5 319,-203.5 319,-178.5 292,-178.5"/>
<text text-anchor="start" x="298.5" y="-187.3" font-family="Times New Roman,serif" font-size="14.00">22</text>
<polygon fill="none" stroke="black" points="319,-178.5 319,-203.5 376,-203.5 376,-178.5 319,-178.5"/>
<text text-anchor="start" x="344" y="-187.3" font-family="Times New Roman,serif" font-size="14.00">4</text>
<polygon fill="none" stroke="black" points="8,-153.5 8,-178.5 91,-178.5 91,-153.5 8,-153.5"/>
<text text-anchor="start" x="29.5" y="-162.3" font-family="Times New Roman,serif" font-size="14.00">Prueba</text>
<polygon fill="none" stroke="black" points="91,-153.5 91,-178.5 175,-178.5 175,-153.5 91,-153.5"/>
<text text-anchor="start" x="98" y="-162.3" font-family="Times New Roman,serif" font-size="14.00">VARIABLE</text>
<polygon fill="none" stroke="black" points="175,-153.5 175,-178.5 243,-178.5 243,-153.5 175,-153.5"/>
<text text-anchor="start" x="181" y="-162.3" font-family="Times New Roman,serif" font-size="14.00">STRUCT</text>
<polygon fill="none" stroke="black" points="243,-153.5 243,-178.5 292,-178.5 292,-153.5 243,-153.5"/>
<text text-anchor="start" x="251.5" y="-162.3" font-family="Times New Roman,serif" font-size="14.00">Local</text>
<polygon fill="none" stroke="black" points="292,-153.5 292,-178.5 319,-178.5 319,-153.5 292,-153.5"/>
<text text-anchor="start" x="298.5" y="-162.3" font-family="Times New Roman,serif" font-size="14.00">26</text>
<polygon fill="none" stroke="black" points="319,-153.5 319,-178.5 376,-178.5 376,-153.5 319,-153.5"/>
<text text-anchor="start" x="340.5" y="-162.3" font-family="Times New Roman,serif" font-size="14.00">17</text>
<polygon fill="none" stroke="black" points="8,-128.5 8,-153.5 91,-153.5 91,-128.5 8,-128.5"/>
<text text-anchor="start" x="31" y="-137.3" font-family="Times New Roman,serif" font-size="14.00">Calcio</text>
<polygon fill="none" stroke="black" points="91,-128.5 91,-153.5 175,-153.5 175,-128.5 91,-128.5"/>
<text text-anchor="start" x="102.5" y="-137.3" font-family="Times New Roman,serif" font-size="14.00">MODULO</text>
<polygon fill="none" stroke="black" points="175,-128.5 175,-153.5 243,-153.5 243,-128.5 175,-128.5"/>
<polygon fill="none" stroke="black" points="243,-128.5 243,-153.5 292,-153.5 292,-128.5 243,-128.5"/>
<text text-anchor="start" x="251.5" y="-137.3" font-family="Times New Roman,serif" font-size="14.00">Local</text>
<polygon fill="none" stroke="black" points="292,-128.5 292,-153.5 319,-153.5 319,-128.5 292,-128.5"/>
<text text-anchor="start" x="298.5" y="-137.3" font-family="Times New Roman,serif" font-size="14.00">25</text>
<polygon fill="none" stroke="black" points="319,-128.5 319,-153.5 376,-153.5 376,-128.5 319,-128.5"/>
<text text-anchor="start" x="344" y="-137.3" font-family="Times New Roman,serif" font-size="14.00">4</text>
<polygon fill="none" stroke="black" points="8,-103.5 8,-128.5 91,-128.5 91,-103.5 8,-103.5"/>
<text text-anchor="start" x="29.5" y="-112.3" font-family="Times New Roman,serif" font-size="14.00">Prueba</text>
<polygon fill="none" stroke="black" points="91,-103.5 91,-128.5 175,-128.5 175,-103.5 91,-103.5"/>
<text text-anchor="start" x="98" y="-112.3" font-family="Times New Roman,serif" font-size="14.00">VARIABLE</text>
<polygon fill="none" stroke="black" points="175,-103.5 175,-128.5 243,-128.5 243,-103.5 175,-103.5"/>
<text text-anchor="start" x="181" y="-112.3" font-family="Times New Roman,serif" font-size="14.00">STRUCT</text>
<polygon fill="none" stroke="black" points="243,-103.5 243,-128.5 292,-128.5 292,-103.5 243,-103.5"/>
<text text-anchor="start" x="251.5" y="-112.3" font-family="Times New Roman,serif" font-size="14.00">Local</text>
<polygon fill="none" stroke="black" points="292,-103.5 292,-128.5 319,-128.5 319,-103.5 292,-103.5"/>
<text text-anchor="start" x="298.5" y="-112.3" font-family="Times New Roman,serif" font-size="14.00">30</text>
<polygon fill="none" stroke="black" points="319,-103.5 319,-128.5 376,-128.5 376,-103.5 319,-103.5"/>
<text text-anchor="start" x="340.5" y="-112.3" font-family="Times New Roman,serif" font-size="14.00">13</text>
<polygon fill="none" stroke="black" points="8,-78.5 8,-103.5 91,-103.5 91,-78.5 8,-78.5"/>
<text text-anchor="start" x="37.5" y="-87.3" font-family="Times New Roman,serif" font-size="14.00">hola</text>
<polygon fill="none" stroke="black" points="91,-78.5 91,-103.5 175,-103.5 175,-78.5 91,-78.5"/>
<text text-anchor="start" x="101.5" y="-87.3" font-family="Times New Roman,serif" font-size="14.00">FUNCION</text>
<polygon fill="none" stroke="black" points="175,-78.5 175,-103.5 243,-103.5 243,-78.5 175,-78.5"/>
<text text-anchor="start" x="189" y="-87.3" font-family="Times New Roman,serif" font-size="14.00">Prueba</text>
<polygon fill="none" stroke="black" points="243,-78.5 243,-103.5 292,-103.5 292,-78.5 243,-78.5"/>
<text text-anchor="start" x="251.5" y="-87.3" font-family="Times New Roman,serif" font-size="14.00">Local</text>
<polygon fill="none" stroke="black" points="292,-78.5 292,-103.5 319,-103.5 319,-78.5 292,-78.5"/>
<text text-anchor="start" x="298.5" y="-87.3" font-family="Times New Roman,serif" font-size="14.00">33</text>
<polygon fill="none" stroke="black" points="319,-78.5 319,-103.5 376,-103.5 376,-78.5 319,-78.5"/>
<text text-anchor="start" x="344" y="-87.3" font-family="Times New Roman,serif" font-size="14.00">8</text>
<polygon fill="none" stroke="black" points="8,-53.5 8,-78.5 91,-78.5 91,-53.5 8,-53.5"/>
<text text-anchor="start" x="30" y="-62.3" font-family="Times New Roman,serif" font-size="14.00">Carros</text>
<polygon fill="none" stroke="black" points="91,-53.5 91,-78.5 175,-78.5 175,-53.5 91,-53.5"/>
<text text-anchor="start" x="102.5" y="-62.3" font-family="Times New Roman,serif" font-size="14.00">MODULO</text>
<polygon fill="none" stroke="black" points="175,-53.5 175,-78.5 243,-78.5 243,-53.5 175,-53.5"/>
<polygon fill="none" stroke="black" points="243,-53.5 243,-78.5 292,-78.5 292,-53.5 243,-53.5"/>
<text text-anchor="start" x="248.5" y="-62.3" font-family="Times New Roman,serif" font-size="14.00">Global</text>
<polygon fill="none" stroke="black" points="292,-53.5 292,-78.5 319,-78.5 319,-53.5 292,-53.5"/>
<text text-anchor="start" x="298.5" y="-62.3" font-family="Times New Roman,serif" font-size="14.00">18</text>
<polygon fill="none" stroke="black" points="319,-53.5 319,-78.5 376,-78.5 376,-53.5 319,-53.5"/>
<text text-anchor="start" x="344" y="-62.3" font-family="Times New Roman,serif" font-size="14.00">0</text>
<polygon fill="none" stroke="black" points="8,-28.5 8,-53.5 91,-53.5 91,-28.5 8,-28.5"/>
<text text-anchor="start" x="13" y="-37.3" font-family="Times New Roman,serif" font-size="14.00">nuevoVector</text>
<polygon fill="none" stroke="black" points="91,-28.5 91,-53.5 175,-53.5 175,-28.5 91,-28.5"/>
<text text-anchor="start" x="98" y="-37.3" font-family="Times New Roman,serif" font-size="14.00">VARIABLE</text>
<polygon fill="none" stroke="black" points="175,-28.5 175,-53.5 243,-53.5 243,-28.5 175,-28.5"/>
<text text-anchor="start" x="180" y="-37.3" font-family="Times New Roman,serif" font-size="14.00">VECTOR</text>
<polygon fill="none" stroke="black" points="243,-28.5 243,-53.5 292,-53.5 292,-28.5 243,-28.5"/>
<text text-anchor="start" x="251.5" y="-37.3" font-family="Times New Roman,serif" font-size="14.00">Local</text>
<polygon fill="none" stroke="black" points="292,-28.5 292,-53.5 319,-53.5 319,-28.5 292,-28.5"/>
<text text-anchor="start" x="298.5" y="-37.3" font-family="Times New Roman,serif" font-size="14.00">42</text>
<polygon fill="none" stroke="black" points="319,-28.5 319,-53.5 376,-53.5 376,-28.5 319,-28.5"/>
<text text-anchor="start" x="344" y="-37.3" font-family="Times New Roman,serif" font-size="14.00">2</text>
<polygon fill="none" stroke="black" points="8,-3.5 8,-28.5 91,-28.5 91,-3.5 8,-3.5"/>
<text text-anchor="start" x="37" y="-12.3" font-family="Times New Roman,serif" font-size="14.00">num</text>
<polygon fill="none" stroke="black" points="91,-3.5 91,-28.5 175,-28.5 175,-3.5 91,-3.5"/>
<text text-anchor="start" x="98" y="-12.3" font-family="Times New Roman,serif" font-size="14.00">VARIABLE</text>
<polygon fill="none" stroke="black" points="175,-3.5 175,-28.5 243,-28.5 243,-3.5 175,-3.5"/>
<text text-anchor="start" x="199.5" y="-12.3" font-family="Times New Roman,serif" font-size="14.00">I64</text>
<polygon fill="none" stroke="black" points="243,-3.5 243,-28.5 292,-28.5 292,-3.5 243,-3.5"/>
<text text-anchor="start" x="251.5" y="-12.3" font-family="Times New Roman,serif" font-size="14.00">Local</text>
<polygon fill="none" stroke="black" points="292,-3.5 292,-28.5 319,-28.5 319,-3.5 292,-3.5"/>
<text text-anchor="start" x="298.5" y="-12.3" font-family="Times New Roman,serif" font-size="14.00">43</text>
<polygon fill="none" stroke="black" points="319,-3.5 319,-28.5 376,-28.5 376,-3.5 319,-3.5"/>
<text text-anchor="start" x="344" y="-12.3" font-family="Times New Roman,serif" font-size="14.00">2</text>
</g>
</g>
</svg>
