<?xml version="1.0" encoding="UTF-8" standalone="no"?>
<!DOCTYPE svg PUBLIC "-//W3C//DTD SVG 1.1//EN"
 "http://www.w3.org/Graphics/SVG/1.1/DTD/svg11.dtd">
<!-- Generated by graphviz version 3.0.0 (20220226.1711)
 -->
<!-- Pages: 1 -->
<svg width="769pt" height="62pt"
 viewBox="0.00 0.00 769.00 62.00" xmlns="http://www.w3.org/2000/svg" xmlns:xlink="http://www.w3.org/1999/xlink">
<g id="graph0" class="graph" transform="scale(1 1) rotate(0) translate(4 58)">
<polygon fill="white" stroke="transparent" points="-4,4 -4,-58 765,-58 765,4 -4,4"/>
<!-- tablaSimbolos -->
<g id="node1" class="node">
<title>tablaSimbolos</title>
<polygon fill="none" stroke="black" points="8.5,-29 8.5,-50 36.5,-50 36.5,-29 8.5,-29"/>
<text text-anchor="start" x="11.5" y="-35.8" font-family="Times New Roman,serif" font-size="14.00">No.</text>
<polygon fill="none" stroke="black" points="36.5,-29 36.5,-50 485.5,-50 485.5,-29 36.5,-29"/>
<text text-anchor="start" x="227" y="-35.8" font-family="Times New Roman,serif" font-size="14.00">Descripción</text>
<polygon fill="none" stroke="black" points="485.5,-29 485.5,-50 534.5,-50 534.5,-29 485.5,-29"/>
<text text-anchor="start" x="488.5" y="-35.8" font-family="Times New Roman,serif" font-size="14.00">Ámbito</text>
<polygon fill="none" stroke="black" points="534.5,-29 534.5,-50 572.5,-50 572.5,-29 534.5,-29"/>
<text text-anchor="start" x="537.5" y="-35.8" font-family="Times New Roman,serif" font-size="14.00">Línea</text>
<polygon fill="none" stroke="black" points="572.5,-29 572.5,-50 629.5,-50 629.5,-29 572.5,-29"/>
<text text-anchor="start" x="575.5" y="-35.8" font-family="Times New Roman,serif" font-size="14.00">Columna</text>
<polygon fill="none" stroke="black" points="629.5,-29 629.5,-50 753.5,-50 753.5,-29 629.5,-29"/>
<text text-anchor="start" x="655" y="-35.8" font-family="Times New Roman,serif" font-size="14.00">Fecha y hora</text>
<polygon fill="none" stroke="black" points="8.5,-4 8.5,-29 36.5,-29 36.5,-4 8.5,-4"/>
<text text-anchor="start" x="19" y="-12.8" font-family="Times New Roman,serif" font-size="14.00">1</text>
<polygon fill="none" stroke="black" points="36.5,-4 36.5,-29 485.5,-29 485.5,-4 36.5,-4"/>
<text text-anchor="start" x="41.5" y="-12.8" font-family="Times New Roman,serif" font-size="14.00">Semantic error, the MODULE: &quot;Persona&quot; doesn&#39;t exist. &#45;&#45; Line: 45 Column: 21</text>
<polygon fill="none" stroke="black" points="485.5,-4 485.5,-29 534.5,-29 534.5,-4 485.5,-4"/>
<text text-anchor="start" x="494" y="-12.8" font-family="Times New Roman,serif" font-size="14.00">Local</text>
<polygon fill="none" stroke="black" points="534.5,-4 534.5,-29 572.5,-29 572.5,-4 534.5,-4"/>
<text text-anchor="start" x="546.5" y="-12.8" font-family="Times New Roman,serif" font-size="14.00">45</text>
<polygon fill="none" stroke="black" points="572.5,-4 572.5,-29 629.5,-29 629.5,-4 572.5,-4"/>
<text text-anchor="start" x="594" y="-12.8" font-family="Times New Roman,serif" font-size="14.00">21</text>
<polygon fill="none" stroke="black" points="629.5,-4 629.5,-29 753.5,-29 753.5,-4 629.5,-4"/>
<text text-anchor="start" x="634.5" y="-12.8" font-family="Times New Roman,serif" font-size="14.00">03&#45;23&#45;2022 01:36:30</text>
</g>
</g>
</svg>
