<?xml version="1.0" encoding="UTF-8" standalone="no"?>
<!DOCTYPE svg PUBLIC "-//W3C//DTD SVG 1.1//EN"
 "http://www.w3.org/Graphics/SVG/1.1/DTD/svg11.dtd">
<!-- Generated by graphviz version 3.0.0 (20220226.1711)
 -->
<!-- Pages: 1 -->
<svg width="221pt" height="112pt"
 viewBox="0.00 0.00 221.00 112.00" xmlns="http://www.w3.org/2000/svg" xmlns:xlink="http://www.w3.org/1999/xlink">
<g id="graph0" class="graph" transform="scale(1 1) rotate(0) translate(4 108)">
<polygon fill="white" stroke="transparent" points="-4,4 -4,-108 217,-108 217,4 -4,4"/>
<!-- tablaSimbolos -->
<g id="node1" class="node">
<title>tablaSimbolos</title>
<polygon fill="none" stroke="black" points="8.5,-79 8.5,-100 36.5,-100 36.5,-79 8.5,-79"/>
<text text-anchor="start" x="11.5" y="-85.8" font-family="Times New Roman,serif" font-size="14.00">No.</text>
<polygon fill="none" stroke="black" points="36.5,-79 36.5,-100 98.5,-100 98.5,-79 36.5,-79"/>
<text text-anchor="start" x="44.5" y="-85.8" font-family="Times New Roman,serif" font-size="14.00">Nombre</text>
<polygon fill="none" stroke="black" points="98.5,-79 98.5,-100 167.5,-100 167.5,-79 98.5,-79"/>
<text text-anchor="start" x="101.5" y="-85.8" font-family="Times New Roman,serif" font-size="14.00">No. Tablas</text>
<polygon fill="none" stroke="black" points="167.5,-79 167.5,-100 205.5,-100 205.5,-79 167.5,-79"/>
<text text-anchor="start" x="170.5" y="-85.8" font-family="Times New Roman,serif" font-size="14.00">Línea</text>
<polygon fill="none" stroke="black" points="8.5,-54 8.5,-79 36.5,-79 36.5,-54 8.5,-54"/>
<text text-anchor="start" x="19" y="-62.8" font-family="Times New Roman,serif" font-size="14.00">1</text>
<polygon fill="none" stroke="black" points="36.5,-54 36.5,-79 98.5,-79 98.5,-54 36.5,-54"/>
<text text-anchor="start" x="41.5" y="-62.8" font-family="Times New Roman,serif" font-size="14.00">Personas</text>
<polygon fill="none" stroke="black" points="98.5,-54 98.5,-79 167.5,-79 167.5,-54 98.5,-54"/>
<text text-anchor="start" x="129.5" y="-62.8" font-family="Times New Roman,serif" font-size="14.00">1</text>
<polygon fill="none" stroke="black" points="167.5,-54 167.5,-79 205.5,-79 205.5,-54 167.5,-54"/>
<text text-anchor="start" x="183" y="-62.8" font-family="Times New Roman,serif" font-size="14.00">1</text>
<polygon fill="none" stroke="black" points="8.5,-29 8.5,-54 36.5,-54 36.5,-29 8.5,-29"/>
<text text-anchor="start" x="19" y="-37.8" font-family="Times New Roman,serif" font-size="14.00">2</text>
<polygon fill="none" stroke="black" points="36.5,-29 36.5,-54 98.5,-54 98.5,-29 36.5,-29"/>
<text text-anchor="start" x="48" y="-37.8" font-family="Times New Roman,serif" font-size="14.00">Ventas</text>
<polygon fill="none" stroke="black" points="98.5,-29 98.5,-54 167.5,-54 167.5,-29 98.5,-29"/>
<text text-anchor="start" x="129.5" y="-37.8" font-family="Times New Roman,serif" font-size="14.00">2</text>
<polygon fill="none" stroke="black" points="167.5,-29 167.5,-54 205.5,-54 205.5,-29 167.5,-29"/>
<text text-anchor="start" x="183" y="-37.8" font-family="Times New Roman,serif" font-size="14.00">8</text>
<polygon fill="none" stroke="black" points="8.5,-4 8.5,-29 36.5,-29 36.5,-4 8.5,-4"/>
<text text-anchor="start" x="19" y="-12.8" font-family="Times New Roman,serif" font-size="14.00">3</text>
<polygon fill="none" stroke="black" points="36.5,-4 36.5,-29 98.5,-29 98.5,-4 36.5,-4"/>
<text text-anchor="start" x="48" y="-12.8" font-family="Times New Roman,serif" font-size="14.00">Carros</text>
<polygon fill="none" stroke="black" points="98.5,-4 98.5,-29 167.5,-29 167.5,-4 98.5,-4"/>
<text text-anchor="start" x="129.5" y="-12.8" font-family="Times New Roman,serif" font-size="14.00">3</text>
<polygon fill="none" stroke="black" points="167.5,-4 167.5,-29 205.5,-29 205.5,-4 167.5,-4"/>
<text text-anchor="start" x="179.5" y="-12.8" font-family="Times New Roman,serif" font-size="14.00">18</text>
</g>
</g>
</svg>
