<?xml version="1.0" encoding="UTF-8" standalone="no"?>
<!DOCTYPE svg PUBLIC "-//W3C//DTD SVG 1.1//EN"
 "http://www.w3.org/Graphics/SVG/1.1/DTD/svg11.dtd">
<!-- Generated by graphviz version 3.0.0 (20220226.1711)
 -->
<!-- Pages: 1 -->
<svg width="224pt" height="62pt"
 viewBox="0.00 0.00 224.00 62.00" xmlns="http://www.w3.org/2000/svg" xmlns:xlink="http://www.w3.org/1999/xlink">
<g id="graph0" class="graph" transform="scale(1 1) rotate(0) translate(4 58)">
<polygon fill="white" stroke="transparent" points="-4,4 -4,-58 220,-58 220,4 -4,4"/>
<!-- tablaSimbolos -->
<g id="node1" class="node">
<title>tablaSimbolos</title>
<polygon fill="none" stroke="black" points="8,-29 8,-50 36,-50 36,-29 8,-29"/>
<text text-anchor="start" x="11" y="-35.8" font-family="Times New Roman,serif" font-size="14.00">No.</text>
<polygon fill="none" stroke="black" points="36,-29 36,-50 101,-50 101,-29 36,-29"/>
<text text-anchor="start" x="45.5" y="-35.8" font-family="Times New Roman,serif" font-size="14.00">Nombre</text>
<polygon fill="none" stroke="black" points="101,-29 101,-50 170,-50 170,-29 101,-29"/>
<text text-anchor="start" x="104" y="-35.8" font-family="Times New Roman,serif" font-size="14.00">No. Tablas</text>
<polygon fill="none" stroke="black" points="170,-29 170,-50 208,-50 208,-29 170,-29"/>
<text text-anchor="start" x="173" y="-35.8" font-family="Times New Roman,serif" font-size="14.00">Línea</text>
<polygon fill="none" stroke="black" points="8,-4 8,-29 36,-29 36,-4 8,-4"/>
<text text-anchor="start" x="18.5" y="-12.8" font-family="Times New Roman,serif" font-size="14.00">1</text>
<polygon fill="none" stroke="black" points="36,-4 36,-29 101,-29 101,-4 36,-4"/>
<text text-anchor="start" x="41" y="-12.8" font-family="Times New Roman,serif" font-size="14.00">biblioteca</text>
<polygon fill="none" stroke="black" points="101,-4 101,-29 170,-29 170,-4 101,-4"/>
<text text-anchor="start" x="132" y="-12.8" font-family="Times New Roman,serif" font-size="14.00">2</text>
<polygon fill="none" stroke="black" points="170,-4 170,-29 208,-29 208,-4 170,-4"/>
<text text-anchor="start" x="185.5" y="-12.8" font-family="Times New Roman,serif" font-size="14.00">2</text>
</g>
</g>
</svg>
